<svg id="Слой_1" data-name="Слой 1" xmlns="http://www.w3.org/2000/svg" viewBox="0 0 347.46 384">
  <defs>
    <style>
      .cls-1 {
        fill: #f17648;
      }

      .cls-2 {
        fill: #019c01;
      }

      .cls-3 {
        fill: #fe7c4c;
      }

      .cls-4 {
        fill: #018c01;
      }

      .cls-5 {
        fill: #4c3004;
      }

      .cls-6 {
        fill: #f3f4ec;
      }

      .cls-7 {
        fill: #fd7e4f;
      }
    </style>
  </defs>
  <title>peach</title>
  <g>
    <path class="cls-1" d="M311.25,432.75c-2.34-.59-4.74-1-7-1.8-5.18-1.75-10.5-3.24-15.4-5.6-22.81-11-45.59-22-66.63-36.21-4.74-3.2-9.2-6.83-13.78-10.26a13.07,13.07,0,0,1,2.71-.85c3.71-.32,7.45-.34,11.14-.79,13.78-1.68,27.63-3,41.29-5.35a227.27,227.27,0,0,0,67.26-22.76c18.74-9.85,35.24-22.38,49-38.53a171.38,171.38,0,0,0,29-48.1,181.67,181.67,0,0,0,9.75-98.85c-1.85-9.87-4.52-19.58-6.82-29.37a17.75,17.75,0,0,1,2.17.44c24.05,8,43.4,22.43,57.24,43.58,22.49,34.38,28.46,72.19,20.33,112.05-6.22,30.54-22.25,55.64-46.71,74.94a655.09,655.09,0,0,1-70,48.07c-11.64,6.95-23.18,14.21-36.62,17.4-3,.71-6,1.33-8.95,2Z" transform="translate(-147.49 -48.75)"/>
    <path class="cls-2" d="M394.5,48.75c2.93.73,5.91,1.3,8.79,2.22,4.13,1.33,8.26,2.74,12.26,4.42,6.4,2.7,9.24,7.79,8.8,14.61-1.61,25-12.89,44.11-34.61,56.86-1.17.68-2.32,1.39-3.48,2.09l-9.76,3.83A79.36,79.36,0,0,1,341.71,134l-14-5c-4.24-2.62-8.3-5.62-8.22-11.14.08-5.67.89-11.34,1.38-17q11.92-43.21,56-51.41c.4-.07.75-.46,1.12-.7Z" transform="translate(-147.49 -48.75)"/>
    <path class="cls-3" d="M376.5,132.78l9.76-3.83,25.49,5.33c2.3,9.79,5,19.5,6.82,29.37a181.67,181.67,0,0,1-9.75,98.85,171.38,171.38,0,0,1-29,48.1c-13.79,16.15-30.29,28.68-49,38.53a227.27,227.27,0,0,1-67.26,22.76c-13.66,2.38-27.51,3.67-41.29,5.35-3.69.45-7.43.47-11.14.79a13.07,13.07,0,0,0-2.71.85c-30.19-24.48-52-54.78-58.52-93.48-7.82-46.31,3-87.93,38.12-121.09,18.44-17.44,41-27.19,65.7-32.28,1.71-.35,3.43-.63,5.15-.94a5.51,5.51,0,0,1,1.07.32c17.11,8.93,34.13,8.72,51.1-.41,1.49-.8,3.13-1.33,4.7-2,.53,1.56,1.44,3.11,1.52,4.69.16,3.45-.1,6.91-.19,10.37a34.68,34.68,0,0,1-3.31,2.39c-10.21,5.66-18.91,13.13-27,21.53a116.94,116.94,0,0,0-24.35,38.64,206.36,206.36,0,0,0-6.6,21.33c-.75,2.76.33,5.28,3.55,6s5.35-.8,6.54-4.54c2-6.4,3.8-12.91,6.24-19.15a106.61,106.61,0,0,1,59.56-61.12,121.38,121.38,0,0,1,37.2-8.82C375.77,139.74,376.49,139.4,376.5,132.78Z" transform="translate(-147.49 -48.75)"/>
    <path class="cls-4" d="M315.74,129c-1.57.66-3.21,1.19-4.7,2-17,9.13-34,9.34-51.1.41a5.51,5.51,0,0,0-1.07-.32c-11.47-7.43-19.77-17.29-23.67-30.6-4.12-14-1.79-18.84,12-23.95s27.06-4.75,40.33,1.27c.89.4,1.84.67,2.77,1l-.06-.07,1.58.71c4.24,3.63,9.05,6.78,12.61,11C313.78,101.5,320.21,113.73,315.74,129Z" transform="translate(-147.49 -48.75)"/>
    <path class="cls-5" d="M315.74,129c4.47-15.28-2-27.51-11.35-38.58-3.56-4.2-8.37-7.35-12.61-11l-1.58-.71.06.07a8.61,8.61,0,0,0-1.43-2.57A74.47,74.47,0,0,0,263,62.35a26.53,26.53,0,0,1-3.21-1,5.1,5.1,0,0,1-3.13-6.42c.7-2.77,3.47-4.25,6.5-3.47a84.56,84.56,0,0,1,32.63,16.78,88.54,88.54,0,0,1,23.62,30.06c.42.87,1,1.7,1.45,2.55-.49,5.67-1.3,11.34-1.38,17-.08,5.52,4,8.52,8.22,11.14.06,1.26.11,2.51.17,3.77l0,6-10.85,5.33c.09-3.46.35-6.92.19-10.37C317.18,132.12,316.27,130.57,315.74,129Z" transform="translate(-147.49 -48.75)"/>
    <path class="cls-1" d="M317.07,144.07l10.85-5.33,8.85-3.57,4.94-1.15a79.36,79.36,0,0,0,34.79-1.24c0,6.62-.73,7-7.58,7.54a121.38,121.38,0,0,0-37.2,8.82,106.61,106.61,0,0,0-59.56,61.12c-2.44,6.24-4.21,12.75-6.24,19.15-1.19,3.74-3.23,5.27-6.54,4.54s-4.3-3.23-3.55-6a206.36,206.36,0,0,1,6.6-21.33A116.94,116.94,0,0,1,286.78,168c8.07-8.4,16.77-15.87,27-21.53A34.68,34.68,0,0,0,317.07,144.07Z" transform="translate(-147.49 -48.75)"/>
    <path class="cls-6" d="M341.71,134l-4.94,1.15-8.88-2.39c-.06-1.26-.11-2.51-.17-3.77Z" transform="translate(-147.49 -48.75)"/>
    <path class="cls-7" d="M327.89,132.78l8.88,2.39-8.85,3.57Z" transform="translate(-147.49 -48.75)"/>
  </g>
</svg>
