<svg xmlns="http://www.w3.org/2000/svg" width="50" height="50" viewBox="160 60 50 50" preserveAspectRatio="xMidYMid meet">
    <defs>
        <clipPath id="be17e4e7a0">
            <path d="M 164.632812 64.707031 L 201 64.707031 L 201 73 L 164.632812 73 Z" clip-rule="nonzero"/>
        </clipPath>
        <clipPath id="c44793a540">
            <path d="M 164.6875 79.257812 L 210.304688 79.257812 L 210.304688 86.789062 L 164.6875 86.789062 Z"
                  clip-rule="nonzero"/>
        </clipPath>
        <clipPath id="c43fb7f9ec">
            <path d="M 164.6875 94 L 193.101562 94 L 193.101562 101.359375 L 164.6875 101.359375 Z"
                  clip-rule="nonzero"/>
        </clipPath>
    </defs>
    <g clip-path="url(#be17e4e7a0)">
        <path fill="#ff5757"
              d="M 197.066406 72.039062 L 168.351562 72.039062 C 166.328125 72.039062 164.6875 70.398438 164.6875 68.375 C 164.6875 66.351562 166.328125 64.710938 168.351562 64.710938 L 197.066406 64.710938 C 199.09375 64.710938 200.734375 66.351562 200.734375 68.375 C 200.734375 70.398438 199.09375 72.039062 197.066406 72.039062 "
              fill-opacity="1" fill-rule="nonzero"/>
    </g>
    <g clip-path="url(#c44793a540)">
        <path fill="#ff5757"
              d="M 206.636719 86.699219 L 168.351562 86.699219 C 166.328125 86.699219 164.6875 85.058594 164.6875 83.035156 C 164.6875 81.011719 166.328125 79.371094 168.351562 79.371094 L 206.636719 79.371094 C 208.660156 79.371094 210.300781 81.011719 210.300781 83.035156 C 210.300781 85.058594 208.660156 86.699219 206.636719 86.699219 "
              fill-opacity="1" fill-rule="nonzero"/>
    </g>
    <g clip-path="url(#c43fb7f9ec)">
        <path fill="#ff5757"
              d="M 189.339844 101.359375 L 168.351562 101.359375 C 166.328125 101.359375 164.6875 99.71875 164.6875 97.695312 C 164.6875 95.671875 166.328125 94.03125 168.351562 94.03125 L 189.339844 94.03125 C 191.363281 94.03125 193.003906 95.671875 193.003906 97.695312 C 193.003906 99.71875 191.363281 101.359375 189.339844 101.359375 "
              fill-opacity="1" fill-rule="nonzero"/>
    </g>
</svg>
