<?xml version="1.0" encoding="UTF-8"?>
<svg id="Layer_2" data-name="Layer 2" xmlns="http://www.w3.org/2000/svg" viewBox="0 0 731.99 679.12">
  <defs>
    <style>
      .cls-1 {
        opacity: .7;
      }

      .cls-2 {
        fill: #fff;
      }

      .cls-3 {
        fill: #0f8457;
      }

      .cls-4 {
        fill: #455a64;
      }

      .cls-5 {
        fill: #1cb57e;
      }

      .cls-6 {
        fill: #ae7461;
      }

      .cls-7 {
        opacity: .2;
      }

      .cls-8 {
        fill: #ff725e;
      }

      .cls-9 {
        opacity: .3;
      }

      .cls-10 {
        fill: #efc13d;
      }

      .cls-11 {
        fill: #03c988;
      }

      .cls-12 {
        fill: #f8e5a3;
      }

      .cls-13 {
        fill: #263238;
      }
    </style>
  </defs>
  <g id="Peach_1" data-name="Peach 1">
    <g>
      <path class="cls-4" d="m486.95,33.16s67.26-26.91,107.62-10.89c40.36,16.02,39.72,58.94,39.72,77.51s1.34,66.62,35.58,77.51c34.24,10.89,45.13-3.84,45.13-3.84,0,0,5.12,17.3-51.89,19.86,0,0-42.11-3.54-57.89-7.86-15.78-4.31-173.89-65.81-186.76-88.23-12.87-22.42-16.07-23.06-16.07-23.06l84.56-41Z"/>
      <path class="cls-5" d="m486.95,33.16s67.26-26.91,107.62-10.89c40.36,16.02,39.72,58.94,39.72,77.51s1.34,66.62,35.58,77.51c34.24,10.89,45.13-3.84,45.13-3.84,0,0,5.12,17.3-51.89,19.86,0,0-42.11-3.54-57.89-7.86-15.78-4.31-173.89-65.81-186.76-88.23-12.87-22.42-16.07-23.06-16.07-23.06l84.56-41Z"/>
      <path class="cls-8" d="m370.2,131.18s139.05-75.32,238.7,59.09c99.65,134.41,61.16,242.68,34.76,294.31-21.86,42.75-89.22,140.2-235.22,173.81,0,0-40.56,12.75-47.51,19.7-6.95,6.95-24.33-23.17-45.19-31.29-20.86-8.11-124.39-38.81-186.55-125.14-41.71-57.94-68.36-114.71-57.94-205.09,10.43-90.38,77.63-181.92,183.08-185.39,0,0,63.73-11.59,115.87,0Z"/>
      <path class="cls-11" d="m362.93,90.99s-17.55-30.92-11.79-52.06c5.77-21.14,17.3-42.92,46.12-34.59,0,0,45.48,32.67,89.69,28.83,0,0-37.16,16.02-46.76,30.11-9.61,14.09-22.42,21.14-33.95,22.42-11.53,1.28-36.8,14.09-36.8,14.09l-6.5-8.79Z"/>
      <g class="cls-7">
        <path d="m129.05,495.52c11.33,34.02,41.45,59.12,71.31,78.97,29.86,19.86,63.66,32.85,97.14,45.68,17.7,6.78,35.68,13.63,54.56,15.3,42.71,3.77,82.73-19.12,119.48-41.21,13.16-7.91,26.62-16.07,36.21-28.07,9.59-11.99,14.68-28.81,8.83-43.02-6.96-16.92-27.04-24.94-45.34-24.87-18.3.07-35.95,6.28-53.98,9.43-66.53,11.61-134.03-19.48-186.08-62.52-19.36-16.01-37.87-34.62-46.24-58.31-14.1-39.91,3.54-83.49,22.39-121.38,18.85-37.89,39.87-78.71,32.39-120.36-18.6,24.41-36.22,49.57-52.8,75.39-26.36,41.05-50.34,84.31-63.12,131.39-12.78,47.08-13.67,98.61,5.23,143.58"/>
      </g>
      <g class="cls-9">
        <path d="m370.2,131.18s70.75-32.12,155.57,23.38c84.82,55.49,104.2,166.59,101.21,243.72-2.98,77.13-31.68,137.47-83.48,184.47-51.81,47-180.57,85.8-180.57,85.8,67.28-25.9,137.93-54.23,182.41-110.97,22.81-29.08,43.14-69.7,48.74-106.23,10.19-66.4,12.49-106.96-6.05-169.3-13.09-44.01-23.17-79.02-70.46-117.5-35.61-28.98-102.57-43.38-147.37-33.36"/>
      </g>
      <path class="cls-13" d="m370.2,131.18s.68-.18,2.02-.45c1.39-.27,3.37-.67,5.96-1.18,2.63-.42,5.92-.75,9.8-1.23,3.9-.15,8.39-.67,13.46-.55,10.13-.07,22.58.69,36.77,3.21,14.18,2.53,30.14,6.76,46.88,13.83,8.28,3.7,16.84,7.94,25.07,13.53,4.04,2.87,8.14,5.89,11.99,9.29,3.99,3.25,7.78,6.89,11.69,10.52,7.61,7.49,14.96,15.79,21.52,25.1,6.58,9.3,12.29,19.6,17.06,30.62,4.82,11.01,8.66,22.72,12.33,34.7,3.65,11.99,7.32,24.28,10.28,36.99,6.03,25.4,8.71,52.6,7.21,80.26-.67,13.83-2.1,27.45-3.86,40.8-.9,6.67-1.82,13.3-2.82,19.85-.89,6.56-2.15,13.08-3.67,19.43-6.43,25.4-17.35,48.43-29.88,68.87-12.56,20.47-27.63,37.94-43.59,52.1-16.06,14.09-32.73,25.1-48.42,34.15-31.53,17.99-58.94,28.72-77.69,36.3-9.42,3.73-16.76,6.53-21.75,8.41-2.47.92-4.36,1.62-5.68,2.12-1.28.47-1.96.67-1.96.67,0,0,.63-.3,1.9-.82,1.31-.53,3.19-1.28,5.63-2.26,4.99-2,12.28-4.92,21.64-8.67,18.67-7.75,46.01-18.63,77.38-36.68,15.61-9.09,32.18-20.11,48.12-34.16,15.84-14.14,30.76-31.51,43.23-51.9,12.43-20.35,23.27-43.29,29.62-68.49,1.5-6.32,2.75-12.72,3.63-19.29,1-6.55,1.91-13.16,2.8-19.82,1.75-13.33,3.17-26.9,3.84-40.67,1.49-27.54-1.17-54.56-7.15-79.86-2.94-12.66-6.59-24.91-10.22-36.9-3.65-11.97-7.45-23.63-12.22-34.57-4.73-10.95-10.37-21.18-16.87-30.41-6.49-9.25-13.77-17.51-21.31-24.97-3.88-3.62-7.63-7.25-11.6-10.5-3.84-3.41-7.87-6.39-11.86-9.25-8.13-5.56-16.62-9.8-24.84-13.51-16.61-7.1-32.5-11.38-46.6-13.98-14.13-2.59-26.52-3.44-36.62-3.46-5.06-.17-9.54.3-13.43.4-3.87.43-7.15.72-9.79,1.09-2.59.44-4.58.79-5.97,1.03-1.35.22-2.05.3-2.05.3Z"/>
      <path class="cls-3" d="m429.65,20.83c.15.26-4.95,2.97-12.41,8.46-3.75,2.72-7.98,6.26-12.43,10.46-4.38,4.26-8.94,9.21-13.25,14.8-4.26,5.63-7.84,11.33-10.8,16.68-2.88,5.39-5.18,10.41-6.82,14.74-3.33,8.64-4.6,14.27-4.89,14.2-.1-.02.17-1.44.74-3.98.27-1.28.65-2.83,1.21-4.6.55-1.77,1.09-3.82,1.94-6,1.53-4.42,3.75-9.53,6.59-15.03,2.92-5.45,6.51-11.25,10.82-16.95,4.36-5.66,9.01-10.64,13.5-14.9,4.55-4.19,8.9-7.68,12.76-10.31,1.88-1.39,3.71-2.46,5.27-3.45,1.56-1.01,2.96-1.78,4.12-2.37,2.31-1.22,3.6-1.85,3.65-1.76Z"/>
      <path class="cls-6" d="m341.21,126.96c.08-5.53.38-13.34,1.34-22.67,1.7-16.5,3.6-19.58,5.31-21.56,4.84-5.57,14.81-9.95,23.42-5.69,5.7,2.82,10.45,9.26,9.93,15.51-.62,7.41-8.1,8.92-11.78,17.59-1.72,4.05-2.96,10.65.77,21.03l-28.99-4.21Z"/>
      <path class="cls-3" d="m685.44,188.62s-.23.04-.68.04c-.54,0-1.19-.02-1.98-.03-1.74-.05-4.31-.1-7.61-.42-6.6-.53-16.14-1.77-27.64-4.69-11.5-2.88-24.91-7.57-38.96-14.53-14.05-6.96-28.7-16.26-42.72-27.7-28.15-22.92-48.32-49.22-61.58-68.72-6.63-9.79-12.04-17.67-16.1-22.88-2-2.63-3.63-4.6-4.73-5.95-.5-.61-.91-1.12-1.26-1.53-.28-.35-.41-.54-.39-.56.02-.02.19.14.51.45.37.39.82.86,1.37,1.43,1.17,1.29,2.88,3.21,4.96,5.79,4.21,5.12,9.78,12.93,16.51,22.64,13.46,19.31,33.68,45.38,61.65,68.16,13.94,11.37,28.46,20.64,42.38,27.63,13.93,6.99,27.21,11.75,38.61,14.75,11.4,3.03,20.87,4.43,27.43,5.14,3.28.41,5.84.56,7.57.7.79.07,1.44.13,1.97.18.44.05.67.09.67.11Z"/>
      <g class="cls-9">
        <g class="cls-1">
          <path class="cls-2" d="m446.54,152.63s0,0,.01,0c.57.16,1.14.32,1.71.47l-1.72-.48Z"/>
        </g>
        <g class="cls-1">
          <path class="cls-2" d="m542.35,235.68c-27.05-45.71-36.84-59.13-95.8-83.05-43.07-11.99-87.43-21.99-124.88-8.17-6.68,2.47-13.85,6.19-16.03,12.98-2.41,7.51,2.39,15.44,8.01,20.98,21.87,21.55,55.43,24.14,84.34,34.48,37.11,13.27,68.68,41.37,86.16,76.7,7.69,15.54,15.27,34.63,32.2,38.39,16.07,3.57,31.97-10.61,35.56-26.68,3.6-16.07-1.18-51.45-9.57-65.62Z"/>
        </g>
      </g>
      <g class="cls-9">
        <path class="cls-2" d="m517.77,376.96c-7.74,1.92-13.14,10.59-11.38,18.37,1.76,7.78,10.44,13.29,18.21,11.5,7.78-1.79,13.18-10.61,11.17-18.33-2.01-7.72-11.09-12.8-18.7-10.4"/>
      </g>
      <path class="cls-2" d="m580.69,384.62s-.05-.26-.06-.76c0-.59-.02-1.32-.04-2.23,0-2.08-.01-4.94-.02-8.56-.01-7.43-.09-18.19-.71-31.46-.62-13.26-1.87-29.05-4.8-46.35-2.91-17.28-7.73-36.07-15.53-54.73-7.96-18.59-18.53-34.95-30.1-48.08-11.62-13.11-24.02-23.13-35.47-29.79-11.42-6.71-21.51-10.6-28.65-12.57-1.76-.6-3.36-.99-4.75-1.29-1.36-.32-2.53-.6-3.52-.83-.88-.22-1.59-.4-2.16-.54-.49-.13-.73-.21-.73-.24,0-.03.26,0,.76.08.58.1,1.3.24,2.19.4,1,.19,2.18.43,3.56.69,1.41.25,3.03.6,4.81,1.16,7.23,1.8,17.46,5.56,29.04,12.21,11.61,6.6,24.2,16.62,35.97,29.79,11.73,13.19,22.43,29.67,30.45,48.42,7.86,18.8,12.67,37.71,15.52,55.09,2.87,17.39,4.01,33.24,4.5,46.54.48,13.3.4,24.07.23,31.51-.06,3.72-.19,6.61-.27,8.56-.05.9-.08,1.64-.11,2.23-.03.5-.06.76-.09.76Z"/>
      <path class="cls-2" d="m573.53,448.04c-.41-.21,2.25-5.4,3.44-12.37,1.26-6.96.54-12.74,1-12.8.36-.11,1.8,5.81.49,13.06-1.25,7.26-4.63,12.33-4.93,12.1Z"/>
      <g>
        <g>
          <path class="cls-11" d="m300.72,33.32C266.53,14.44,228.99-2.26,190.02.25,121.53,4.67,68.05,66.32,0,75.19c39.37,36.66,94.36,55.97,148.02,51.96,38.46-2.87,75.04-16.97,112.33-26.8,37.29-9.83,77.83-15.26,113.72-1.16l1.96-5.35c-18.64-26.62-46.86-44.81-75.3-60.52Z"/>
          <path class="cls-3" d="m374.87,99.19s-.29-.15-.82-.51c-.59-.41-1.35-.94-2.31-1.61-1-.73-2.27-1.59-3.8-2.54-1.51-1-3.27-2.11-5.32-3.25-8.07-4.78-20.53-10.43-36.7-15.01-8.07-2.31-17.04-4.41-26.72-6.38-9.7-1.96-20.05-3.99-31.1-4.92-22.11-2.01-46.61-.38-71.99,3.16-25.41,3.51-49.44,8.25-71.52,11.24-22.06,3.05-42.15,4.49-59.02,3.98-16.87-.36-30.41-2.7-39.58-4.81-2.27-.56-4.3-1.06-6.08-1.5-1.71-.52-3.17-.97-4.39-1.34-1.12-.36-2-.64-2.69-.85-.6-.2-.91-.32-.9-.34,0-.03.33.04.95.19.69.18,1.59.41,2.73.71,1.22.33,2.7.73,4.42,1.2,1.78.4,3.81.85,6.09,1.36,9.18,1.93,22.67,4.09,39.47,4.32,16.79.37,36.8-1.17,58.8-4.29,22.02-3.06,46.03-7.84,71.51-11.36,25.44-3.55,50.07-5.16,72.32-3.05,11.13.98,21.56,3.07,31.23,5.08,9.69,2.03,18.68,4.19,26.77,6.58,16.2,4.73,28.68,10.57,36.7,15.53,8.06,4.92,11.96,8.42,11.96,8.42Z"/>
        </g>
        <path class="cls-3" d="m121.82,79.38c.07.08-.65.77-2.01,1.96-1.39,1.15-3.48,2.73-6.16,4.52-5.36,3.6-13.12,7.97-21.85,12.44-8.75,4.44-16.82,8.18-22.7,10.76-2.94,1.29-5.34,2.31-7.01,2.97-1.67.67-2.61.99-2.66.89-.09-.19,3.45-2.01,9.21-4.84,5.76-2.83,13.74-6.71,22.46-11.14,8.71-4.46,16.51-8.65,21.97-12,5.5-3.29,8.6-5.75,8.75-5.57Z"/>
        <path class="cls-3" d="m72.13,49.57c.1-.17,2.97,1.21,7.42,3.81,4.45,2.58,10.45,6.39,17.04,10.63,6.59,4.24,12.56,8.05,16.93,10.73,4.36,2.69,7.11,4.28,7.01,4.48-.09.17-3.02-1.09-7.55-3.55-4.53-2.45-10.62-6.13-17.21-10.38-6.34-4.15-12.07-7.91-16.78-10.99-4.28-2.82-6.96-4.53-6.85-4.73Z"/>
        <path class="cls-3" d="m191.82,67.53c.1.04-.31,1.18-1.14,3.23-.8,2.05-2.18,4.93-4.07,8.39-1.87,3.47-4.41,7.44-7.49,11.65-3.14,4.17-6.86,8.56-11.11,12.82-8.57,8.49-17.55,14.8-24.32,18.82-3.38,2.01-6.19,3.53-8.18,4.46-1.98.96-3.1,1.44-3.15,1.34-.12-.23,4.18-2.49,10.76-6.72,6.57-4.23,15.35-10.6,23.81-18.99,4.21-4.21,7.91-8.51,11.07-12.59,3.11-4.11,5.7-7.97,7.68-11.34,3.98-6.72,5.89-11.2,6.15-11.08Z"/>
        <path class="cls-3" d="m133.24,19.98c.19-.14,2.73,3.01,7.07,7.88,4.34,4.88,10.57,11.4,18.03,17.98,7.47,6.58,14.71,11.95,20.09,15.65,5.38,3.7,8.82,5.83,8.7,6.04-.05.09-.97-.34-2.59-1.2-1.63-.85-3.92-2.19-6.7-3.94-5.56-3.49-12.97-8.77-20.51-15.41-7.52-6.64-13.68-13.34-17.84-18.42-2.08-2.54-3.69-4.65-4.74-6.16-1.06-1.5-1.6-2.36-1.52-2.42Z"/>
        <path class="cls-3" d="m284.97,66.47c.1.21-3.51,2.03-9.2,5.22-5.67,3.21-13.43,7.8-21.42,13.7-8.01,5.87-14.66,11.96-18.94,16.84-4.33,4.85-6.42,8.32-6.65,8.18-.09-.05.37-.95,1.3-2.55.94-1.57,2.43-3.8,4.54-6.33,4.13-5.13,10.77-11.44,18.85-17.37,8.07-5.95,15.98-10.44,21.82-13.42,2.92-1.48,5.32-2.61,7.02-3.31,1.69-.71,2.64-1.06,2.69-.97Z"/>
        <path class="cls-3" d="m211.86.52c.05-.08,1.29.53,3.43,1.84,2.13,1.31,5.17,3.39,8.35,6.6,3.22,3.2,6.42,7.42,10.7,11.43,4.22,4.09,9.12,8.32,14.34,12.69,10.46,8.7,20.05,16.51,26.54,22.69,3.27,3.06,5.75,5.71,7.4,7.6,1.6,1.94,2.44,3.03,2.36,3.1-.08.07-1.07-.9-2.79-2.7-1.77-1.75-4.35-4.26-7.69-7.21-6.63-5.95-16.29-13.59-26.78-22.32-5.23-4.38-10.13-8.67-14.34-12.85-4.29-4.13-7.47-8.49-10.49-11.68-3.02-3.24-5.89-5.4-7.91-6.86-2.02-1.45-3.16-2.24-3.1-2.33Z"/>
        <path class="cls-2" d="m245.02,19.87c-.09.14-2.55-1.61-7.4-3.97-4.86-2.32-12.25-5.09-21.82-6.44-9.54-1.38-21.17-1.22-33.67,1.3-12.53,2.47-25.82,7.23-39.36,13.09-26.92,12.12-51.29,23.09-69.1,31.12-8.75,3.88-15.89,7.04-21,9.31-2.38,1.02-4.29,1.84-5.74,2.46-1.32.55-2.02.81-2.04.76-.02-.05.64-.41,1.92-1.04,1.42-.69,3.29-1.59,5.62-2.72,5.06-2.37,12.13-5.69,20.8-9.75,17.62-8.12,41.87-19.49,68.95-31.53,13.59-5.88,27.01-10.65,39.69-13.07,12.67-2.48,24.46-2.53,34.1-.99,9.67,1.5,17.1,4.47,21.92,6.98,2.4,1.29,4.22,2.37,5.38,3.2,1.18.81,1.79,1.25,1.76,1.3Z"/>
      </g>
      <path class="cls-2" d="m389.82,6.78c.12.25-2.84,1.71-7.06,4.86-4.23,3.12-9.57,8.17-14,14.87-4.4,6.72-6.92,13.63-8.11,18.75-1.21,5.13-1.39,8.43-1.66,8.41-.1,0-.14-.83-.11-2.33,0-1.5.23-3.67.72-6.31.94-5.28,3.37-12.46,7.89-19.36,4.55-6.88,10.17-11.95,14.65-14.91,2.23-1.49,4.13-2.56,5.51-3.16,1.36-.62,2.13-.92,2.18-.83Z"/>
    </g>
    <path class="cls-2" d="m348.83,403.31c-.3.19-1.68-1.5-3.08-3.76-1.4-2.26-2.29-4.25-1.99-4.43.3-.19,1.68,1.5,3.08,3.76,1.4,2.26,2.29,4.25,1.99,4.43Z"/>
    <path class="cls-2" d="m353.93,400.12c-.31.18-1.54-1.37-2.76-3.46-1.22-2.09-1.96-3.93-1.66-4.11.3-.18,1.54,1.37,2.76,3.46,1.22,2.09,1.96,3.93,1.66,4.11Z"/>
    <path class="cls-2" d="m359.61,395.71c-.33.13-1.16-1.18-1.86-2.92-.7-1.74-1-3.26-.67-3.39.33-.13,1.16,1.18,1.86,2.92.7,1.74,1,3.26.67,3.39Z"/>
    <path class="cls-2" d="m193.86,250.75c-.29-.2.98-2.62,2.83-5.4,1.86-2.79,3.6-4.89,3.9-4.69.29.2-.98,2.61-2.83,5.4-1.86,2.79-3.6,4.89-3.9,4.69Z"/>
    <path class="cls-2" d="m197.22,258.61c-.3-.18.96-2.84,2.82-5.94,1.86-3.1,3.61-5.46,3.91-5.28.3.18-.96,2.84-2.82,5.94-1.86,3.1-3.61,5.46-3.91,5.28Z"/>
    <path class="cls-2" d="m202.83,263.09c-.32-.14.17-2.01,1.1-4.18.93-2.17,1.95-3.81,2.27-3.67.32.14-.17,2.01-1.1,4.18-.93,2.17-1.95,3.81-2.27,3.67Z"/>
  </g>
  <g id="Layer_2-2" data-name="Layer 2">
    <circle class="cls-2" cx="371.27" cy="376.96" r="241.85"/>
  </g>
  <g id="OBJECTS">
    <g>
      <path class="cls-10" d="m650.59,235.63l34.63,6.72,5.66,34.85c.05.33.53.33.59,0l5.66-34.85,34.63-6.72c.32-.06.32-.52,0-.58l-34.63-6.85-5.66-33.2c-.06-.33-.53-.33-.59,0l-5.66,33.2-34.63,6.85c-.32.06-.32.52,0,.58Z"/>
      <path class="cls-10" d="m615.28,277.14l22.32,4.33,3.65,22.46c.03.21.34.21.38,0l3.65-22.46,22.32-4.33c.21-.04.21-.34,0-.38l-22.32-4.42-3.65-21.4c-.04-.21-.34-.21-.38,0l-3.65,21.4-22.32,4.42c-.21.04-.21.34,0,.38Z"/>
      <path class="cls-12" d="m633.12,194.55l14.7,2.85,2.4,14.79c.02.14.23.14.25,0l2.4-14.79,14.7-2.85c.14-.03.14-.22,0-.25l-14.7-2.91-2.4-14.09c-.02-.14-.23-.14-.25,0l-2.4,14.09-14.7,2.91c-.14.03-.14.22,0,.25Z"/>
    </g>
    <path class="cls-10" d="m125.16,544.59l-10.83,6.9c-6.41,4.08-11.21,10.25-13.55,17.48l-3.28,10.1-.72,2.22-.43,1.13-.46-1.13-.72-2.22-3.28-10.1c-2.34-7.23-7.14-13.41-13.55-17.48l-10.83-6.9,10.78-7.5c5.67-3.95,9.94-9.6,12.2-16.11l5.81-16.74.05.1.02-.1,5.81,16.74c2.27,6.51,6.54,12.15,12.2,16.11l10.78,7.5Z"/>
  </g>
</svg>