<?xml version="1.0" encoding="UTF-8"?>
<svg id="Layer_2" data-name="Layer 2" xmlns="http://www.w3.org/2000/svg" viewBox="0 0 605.84 728.7">
  <defs>
    <style>
      .cls-1 {
      opacity: .15;
      }

      .cls-1, .cls-2 {
      fill: #3d1d55;
      }

      .cls-3 {
      stroke-width: 11px;
      }

      .cls-3, .cls-4, .cls-5, .cls-6, .cls-7 {
      stroke-miterlimit: 10;
      }

      .cls-3, .cls-8, .cls-7 {
      stroke-linecap: round;
      }

      .cls-3, .cls-7 {
      fill: none;
      stroke: #1d1d1b;
      }

      .cls-9 {
      opacity: .7;
      }

      .cls-10 {
      fill: #fff;
      }

      .cls-11 {
      fill: #f9c710;
      }

      .cls-4 {
      stroke-width: 16px;
      }

      .cls-4, .cls-8 {
      stroke: #212327;
      }

      .cls-4, .cls-12 {
      fill: #ffcd01;
      }

      .cls-5 {
      stroke-width: 28px;
      }

      .cls-5, .cls-13 {
      fill: #232325;
      }

      .cls-5, .cls-6 {
      stroke: #232325;
      }

      .cls-14 {
      opacity: .6;
      }

      .cls-8 {
      fill: #7c0000;
      stroke-linejoin: round;
      stroke-width: 7px;
      }

      .cls-15 {
      fill: #f8a01f;
      }

      .cls-16 {
      opacity: .4;
      }

      .cls-17 {
      fill: #69060a;
      }

      .cls-18 {
      opacity: .75;
      }

      .cls-19 {
      opacity: .3;
      }

      .cls-20 {
      fill: #212327;
      }

      .cls-21 {
      opacity: .5;
      }

      .cls-21, .cls-22 {
      fill: #cdc2b8;
      }

      .cls-23 {
      fill: #ffac73;
      }

      .cls-24 {
      opacity: .36;
      }

      .cls-25 {
      fill: #a55a0f;
      }

      .cls-6 {
      fill: #f9f7ed;
      opacity: .88;
      stroke-width: 10px;
      }

      .cls-26 {
      fill: #d6ab47;
      }

      .cls-7 {
      stroke-width: 13px;
      }

      .cls-27 {
      fill: #1d1d1b;
      }
      
      .animate-pulse
      {
      animation: pulse 2s cubic-bezier(0.4, 0, 0.6, 1) infinite;

      @keyframes pulse {
      0%, 100% {
      opacity: 1;
      }
      50% {
      opacity: .5;
      }
      }
      }

      .animate-bounce
      {
      animation: bounce 1s infinite;
      @keyframes bounce {
      0%, 100% {
      transform: translateY(-25%);
      animation-timing-function: cubic-bezier(0.8, 0, 1, 1);
      }
      50% {
      transform: translateY(0);
      animation-timing-function: cubic-bezier(0, 0, 0.2, 1);
      }
      }
      }
    </style>
  </defs>
  <g id="Layer_2-2" data-name="Layer 2">
    <g>
      <g>
        <g>
          <path class="cls-6"
            d="m195.85,181.67c-4.41-9.57-20.76-48-6.62-93.98C206.35,31.98,254.65,9.36,262.18,5.99c18.75,19.23,27.87,38.04,32.47,49.97,22.22,57.61,5.31,126.96-36.76,167.94-13.13,12.79-26.37,20.54-35.2,24.98-8.95-22.41-17.9-44.81-26.85-67.22Z" />
          <path class="cls-27"
            d="m240.16,207.55c-1.35-6.92-2.27-13.94-2.78-20.99-.5-7.04-.72-14.16-.16-21.26.3-3.54.56-6.94.39-10.38-.09-1.72-.21-3.45-.43-5.16-.1-.86-.19-1.72-.31-2.57l-.41-2.55c-.61-3.39-1.46-6.71-2.56-9.97-1.06-3.27-2.53-6.45-3.41-10.22-.43-1.89-.54-3.93-.35-5.9.13-.98.26-1.96.53-2.89.21-.95.51-1.86.85-2.78.68-1.84,1.77-3.67,2.95-5.15,1.18-1.5,2.33-2.78,3.4-4.12,4.33-5.25,7.86-11.12,11.5-17.12,1.8-2.95,3.41-5.9,4.63-9.02,1.26-3.1,2.11-6.38,2.67-9.73,1.09-6.71.77-13.7-.44-20.64l.48-.14c2.6,6.6,3.91,13.86,3.45,21.16-.19,3.65-.91,7.29-2.01,10.82-1.12,3.53-2.75,6.87-4.44,10.02-3.41,6.17-7.18,12.43-12.08,17.85-1.2,1.35-2.47,2.63-3.53,3.85-1.06,1.23-1.86,2.42-2.48,3.85-.3.72-.58,1.47-.78,2.24-.26.76-.38,1.52-.52,2.28-.2,1.52-.2,3.04.08,4.6.6,3.13,1.95,6.46,2.95,9.91,1.04,3.45,1.81,7,2.32,10.56l.34,2.67c.09.89.15,1.79.23,2.68.17,1.78.22,3.57.25,5.37.05,3.61-.35,7.23-.77,10.69-.86,6.92-.96,13.93-.79,20.94.21,7.01.78,14.02,1.74,20.99l-.49.08Z" />
          <path class="cls-27"
            d="m238.68,150.85c4.76-4.2,8.8-9.21,10.83-15.07,1.1-2.9,1.97-6.05,3.49-9.08,1.54-3,3.57-5.79,6.18-8.14,2.61-2.34,5.8-3.93,8.46-5.41,2.67-1.47,4.69-2.95,6.34-5.17,1.68-2.21,2.95-4.85,3.76-7.72.82-2.88,1.2-5.98,1.44-9.22l.49-.07c1.17,3.07,1.74,6.42,1.53,9.85-.2,3.42-1.18,6.91-3.1,9.98-.99,1.51-2.19,3-3.69,4.12-1.46,1.14-3.07,2-4.6,2.66-1.53.65-2.98,1.21-4.34,1.84-1.36.63-2.58,1.38-3.77,2.22-2.27,1.77-4.24,4.08-5.8,6.65-1.58,2.56-2.7,5.51-4.11,8.47-.72,1.47-1.54,2.91-2.45,4.29-.95,1.35-1.93,2.67-3.05,3.86-2.19,2.41-4.66,4.53-7.32,6.33l-.3-.4Z" />
          <path class="cls-27"
            d="m238.88,156.37c-2.99-2.08-5.88-4.26-8.82-6.37-1.45-1.08-2.89-2.17-4.36-3.22-1.45-1.07-2.9-2.14-4.36-3.15-1.45-1.01-2.98-1.92-4.42-2.58-1.46-.69-2.54-1.02-4.08-1.32-1.47-.27-3.04-.39-4.71-.31-1.67.06-3.42.31-5.33.54l-.24-.44c2.49-2.98,6.45-4.85,10.74-4.77,1.05.04,2.14.18,3.24.54,1.09.36,2.06.9,2.89,1.49,1.67,1.19,3.01,2.49,4.4,3.71,1.37,1.23,2.7,2.49,4.02,3.74,1.31,1.27,2.57,2.58,3.85,3.87,2.51,2.64,5.07,5.22,7.52,7.9l-.33.37Z" />
          <path class="cls-27"
            d="m239.31,105.96c-2.54.12-5.1-.22-7.58-.98-2.47-.75-4.85-1.96-6.95-3.58-1.03-.81-2.05-1.74-2.91-2.77-.86-1.02-1.64-2.1-2.33-3.25-1.36-2.31-2.36-4.87-2.84-7.59-.45-2.72-.5-5.54,0-8.29.5-2.75,1.64-5.35,3.22-7.59,1.58-2.24,3.53-4.17,5.72-5.69,2.17-1.53,4.58-2.7,7.12-3.31l.24.44c-1.81,1.84-3.48,3.61-4.98,5.46-1.48,1.86-2.79,3.77-3.86,5.76-1.08,1.99-1.97,4.01-2.65,6.12-.69,2.1-1.02,4.33-.85,6.57.19,2.23.82,4.46,1.81,6.56.48,1.05,1.06,2.08,1.71,3.04.64.97,1.39,1.82,2.24,2.65,3.3,3.36,8,5.38,12.9,5.94v.5Z" />
          <path class="cls-27"
            d="m237.84,181.75c4.67-3.11,8.89-6.83,12.31-11.13,3.5-4.25,5.83-9.15,8.6-14.21,1.41-2.51,2.94-5.08,4.82-7.42,1.87-2.34,4.12-4.38,6.6-6.02,2.47-1.65,5.14-2.97,7.9-3.95,2.75-.99,5.59-1.66,8.5-1.89l.16.47c-2.42,1.58-4.8,3.04-7.08,4.57-2.28,1.52-4.45,3.13-6.5,4.83-4.06,3.41-7.96,6.88-10.98,11.51-1.53,2.28-2.99,4.72-4.62,7.09-1.66,2.36-3.49,4.63-5.53,6.69-4.11,4.06-8.8,7.45-13.92,9.9l-.25-.43Z" />
        </g>
        <path class="cls-22"
          d="m261.44,8.07c4.21,4.33,9.93,10.76,15.73,19.26,5.66,8.3,14.79,23.55,20.35,44.54,1.34,5.05,3.78,15.38,4.6,28.75.15,2.38.69,12.2-.59,25.27-.69,7.02-1.97,19.64-7.13,35.08-2.58,7.71-5.22,13.41-6.74,16.67-5.54,11.87-10.98,19.98-12.67,22.44-2.45,3.57-4.65,6.46-6.28,8.5-1.7-2.08-3.39-4.16-5.09-6.24,6.19-8.39,14.18-20.95,20.48-37.51,5.85-15.37,11.81-38.34,9.96-65.85-1.68-24.93-9.07-43.12-14.9-57.12-5.96-14.32-12.51-25.69-17.71-33.8Z" />
        <path class="cls-21"
          d="m274.5,200.81c-4.31-5.56-10.34-12.88-18.11-20.97-8.92-9.29-14.42-15.02-22.77-20.97-15.45-11-22.05-9.6-34.04-20.17-6.83-6.02-11.25-12.26-13.9-16.56-.17,2.85-.23,6.36,0,10.38,0,0,.33,5.76,1.38,11.38,5.49,29.33,27.47,48.91,27.47,48.91,7.95,7.08,22.7,20.21,41.98,18.69,5.17-.41,9.36-1.77,12.2-2.92,1.93-2.59,3.86-5.18,5.79-7.76Z" />
      </g>
      <path class="cls-7"
        d="m469.87,161.29c-1.57-3.95-3.53-9.85-4.48-17.22-1.01-7.84-3.43-26.71,7.67-41.55,10.61-14.18,33.06-23.99,49.2-15.53,7.72,4.05,16.43,13.55,15.45,25.11-.64,7.62-5.62,17.66-15.56,20.02-9.92,2.35-17.94-4.57-18.8-5.34" />
      <rect class="cls-4" x="482.28" y="474.77" width="97.75" height="36.96" rx="18.48" ry="18.48"
        transform="translate(283.32 1174.42) rotate(-112.89)" />
      <rect class="cls-4" x="286.95" y="585.15" width="97.75" height="36.96" rx="18.48" ry="18.48"
        transform="translate(-89.68 1147.77) rotate(-112.89)" />
      <path class="cls-8" d="m122.76,494.07s-17.49,26.14-19.05,81.63c0,0,23.58-25.29,44.53-32.09" />
      <ellipse class="cls-5" cx="348.33" cy="382.81" rx="265.7" ry="201.69"
        transform="translate(-161.78 295.26) rotate(-37.96)" />
      <path class="cls-12"
        d="m178.48,266.62c-78.83,88.54-98.11,204.67-39.64,279.63,68.52,87.82,217.85,85.84,333.55-4.42,10.28-8.02,19.95-16.47,28.98-25.27-102.83,41.09-218.12,18.25-282.63-64.44-41.38-53.04-53.8-120.36-40.26-185.49Z" />
      <path class="cls-13"
        d="m224.27,223.79c-16.96,13.23-32.26,27.62-45.79,42.83-13.53,65.14-1.12,132.45,40.26,185.49,64.51,82.69,179.8,105.53,282.63,64.44,42.99-41.85,71.68-91.61,83.85-140.93-98.13,37.16-203.01,18.54-260.07-54.6-30.24-38.76-42.36-86.82-38.15-136.26-21.52,10.34-42.63,23.35-62.72,39.02Z" />
      <g class="cls-9">
        <path class="cls-10"
          d="m179.41,582.74c7.3,4.52,17.26,9.96,29.68,14.77,2.84,1.1,10.9,4.14,22.03,6.95,5.11,1.29,23.87,5.8,49.71,6.35,14.99.32,35.54-.64,59.51-6.03,9.04-1.94,21.62-5.09,36.4-10.26,1.12-.39,4.84-1.7,9.38-3.46,10.39-4.02,25.25-10.44,43.33-20.54h.01c8.15-4.61,18.9-11.13,30.98-19.75,2.42-1.73,14.7-10.54,27.57-21.84,7.79-6.84,32.96-29.58,54.97-61.43,4.16-6.01,7.32-11.09,8.31-12.67,9.65-15.56,15.74-28.49,18.72-35.18,1.67-3.75,2.98-6.9,3.86-9.06.32-.79.72-1.78,1.16-2.9h0c.29-.73.51-1.32.67-1.73.13-.34.24-.62.27-.71.02-.05.18-.47.35-.91.31-.83.62-1.65.76-2.05,1.01-2.83,1.2-3.34,1.71-4.82,2.23-6.46,3.77-11.83,4.23-13.45.94-3.32,1.68-6.18,2.22-8.37-1.35.51-2.72,1.02-4.11,1.52-.95.35-1.9.68-2.84,1.01-1.11,5.12-3.03,13.06-6.19,22.5-21.32,63.68-67.94,102.24-96.58,125.92-24.76,20.48-43.13,30.61-47.54,33-19.02,10.32-35.18,16.01-54.07,22.67-15.74,5.55-27.6,9.76-44.61,13.36-11.92,2.52-29.78,6.21-53.42,6.02-19.7-.16-34.39-2.91-47.28-5.39-20.08-3.86-36.73-9.02-49.16-13.51Z" />
      </g>
      <g class="cls-24">
        <path class="cls-10"
          d="m253.19,573.04c-1.98-9.03,52.52-9.75,109.15-58.49,24.93-21.46,40.13-43.5,76-54.72,5.7-1.78,38.46-12.03,44.95-1.81,9.24,14.53-35.31,69.42-91.96,98.06-64.13,32.43-135.89,27.23-138.14,16.97Z" />
      </g>
      <g class="cls-19">
        <path class="cls-2"
          d="m179.41,582.74c-5.5-3.43-11.6-7.72-17.92-13.03-6.04-5.08-11.11-10.11-15.31-14.74-10.1-11.46-24.71-30.94-33.93-58.39-15.29-45.55-6.17-84.63-.66-108.28,13.57-58.18,44.68-95.85,62.14-116.61,39.08-46.48,83.21-72.66,113.26-86.92-.93,10.09-1.41,23.43.14,38.96,2.59,26.04,9.54,44.94,11.55,50.19,9.07,23.72,21.57,41.58,31.96,53.81-15.29.73-76.83,5.44-122.46,54.67-47.38,51.12-58.66,129.82-28.76,200.35Z" />
      </g>
      <g>
        <path class="cls-12"
          d="m287,184.77c-4.21,49.44,7.91,97.5,38.15,136.26,57.07,73.15,161.94,91.76,260.07,54.6,14.06-56.98,6.06-113.36-27.4-156.26-56.62-72.57-168.42-83.82-270.82-34.6Z" />
        <g class="cls-9">
          <path class="cls-10"
            d="m588.43,287.18c-4-13.77-11.85-34.19-27.8-54.93-5.4-7.02-17.86-22.06-38.19-36-19.34-13.27-37.7-19.99-50.26-23.53-.72.83-9.66,10.81-23.07,9.15-10.28-1.27-18.97-8.85-22-19.22-19.34-1.8-47.23-2.43-79.58,4.27-35.43,7.34-60.3,20.16-60.65,19.3-.36-.9,26.72-14.7,59.92-23.15,16.28-4.14,29.79-5.85,34.42-6.39,11.38-1.33,20.58-1.64,25.96-1.72,19.26-.29,33.79,1.68,36.86,2.11,11.77,1.65,28.84,4.17,49.27,12.99,4.78,2.06,18.86,8.41,33.69,19.39,5.13,3.8,9.04,7.18,10.34,8.32,8.11,7.1,13.91,13.62,17.29,17.66,10.98,13.14,17.51,25.41,20.73,32.08,1.7,3.51,7.21,15.27,11.26,31.55.82,3.31,1.41,6.12,1.81,8.13Z" />
        </g>
        <path class="cls-1"
          d="m588.43,287.18c-.72.03.8,12.26-2.36,31.95-2.2,13.69-4.2,25.32-12.58,36.3-2.41,3.16-7.33,8.88-17.23,14.79-27.71,16.55-62,15.24-83.04,14.21-19.96-.98-44.19-2.37-74.03-13.76-32.85-12.55-55.55-30.76-68.55-42.94,20.32,22.91,41.11,35.93,54.67,43.03,3.14,1.64,15.26,7.85,32.22,13.24,6.27,1.99,27.44,8.39,56.31,9.92,9.28.49,17.06.36,22.59.13,7.21-.29,15.01-.89,23.31-1.94,7.97-1.01,15.39-2.31,22.2-3.76,6.62-1.37,13.68-3.1,21.09-5.29,8.82-2.61,13.33-3.76,15.26-5.04,7.63-5.05,10.04-14.78,11.65-27.14,4.3-33.1.09-63.77-1.52-63.7Z" />
      </g>
      <ellipse class="cls-23" cx="554.84" cy="274.96" rx="16.62" ry="13.96"
        transform="translate(-.74 548.41) rotate(-52.57)" />
      <ellipse class="cls-23" cx="393.96" cy="321.3" rx="16.62" ry="13.96"
        transform="translate(-114.18 306.08) rotate(-37.48)" />
      <path class="cls-20"
        d="m452.2,327.46c9.94,6.4,23.02,7.09,34.51,2.23,12.22-5.14,17.97-16.01,20.21-27.35.15-.63.82-1.07,1.5-.99.48.05.83.35.95.74.93,3.07,1.29,6.37,1.06,9.78-1.66,23.81-33.54,37.25-53.3,24.49-2.93-1.96-5.37-4.47-6.88-7.38-.28-.55,0-1.25.64-1.56.45-.22.96-.19,1.32.05Z" />
      <path class="cls-7"
        d="m372.12,162.29c.07-4.25-.19-10.47-1.91-17.69-1.84-7.69-6.25-26.2-21.89-36.14-14.94-9.5-39.42-10.72-51.51,2.91-5.78,6.52-10.56,18.49-5.55,28.96,3.3,6.9,11.52,14.53,21.64,13.21,10.11-1.31,15.16-10.63,15.69-11.65" />
      <g>
        <g>
          <path class="cls-6"
            d="m217.38,185.3c-5.93-10.84-30.69-53.13-83.89-71.98-64.46-22.84-119.55,6.84-128,11.57,5.01,31.11,16.34,52.87,24.36,65.55,38.72,61.23,115.88,93.82,183.92,82.86,21.24-3.42,37.8-10.47,48.15-15.68-14.84-24.11-29.69-48.21-44.53-72.32Z" />
          <path class="cls-27"
            d="m210.38,245.52c-5.87-5.8-12.06-11.26-18.5-16.39-6.47-5.1-13.13-9.93-20.25-13.99-3.55-2.04-7.23-4.19-10.57-6.76-1.66-1.29-3.3-2.59-4.86-4-.78-.7-1.58-1.38-2.35-2.09l-2.27-2.19c-2.98-2.97-5.76-6.17-8.27-9.55-2.54-3.35-4.71-6.95-7.27-9.76-1.29-1.39-2.75-2.48-4.35-3.38l-1.25-.62c-.41-.22-.88-.34-1.31-.52-.87-.35-1.79-.62-2.69-.85-1.81-.44-3.56-.53-5.48-.4-1.92.13-4,.42-6.11.6-8.49.79-16.99-.03-25.19-1.11-4.15-.59-8.4-1.37-12.49-2.76-4.07-1.41-7.98-3.24-11.56-5.57-7.19-4.6-13.15-10.83-17.64-17.82l.4-.3c5.59,6.07,11.92,11.35,19.02,15.09,3.55,1.85,7.25,3.37,11.07,4.39,3.81,1.06,7.75,1.63,11.79,2.02,8.19.79,16.23,1.57,24.25,1.14,2.02-.08,4.04-.28,6.25-.35,2.2-.08,4.62.16,6.8.79,1.09.31,2.14.67,3.17,1.12.51.23,1.04.4,1.54.68l1.5.81c1.96,1.18,3.77,2.67,5.24,4.37,2.9,3.42,4.88,7.02,7.24,10.32,2.31,3.33,4.87,6.45,7.65,9.4l2.13,2.18c.72.71,1.48,1.39,2.22,2.09,1.47,1.41,3.02,2.73,4.59,4.02,3.14,2.57,6.55,4.71,10.09,6.89,7.08,4.41,13.64,9.57,19.94,14.94,6.29,5.4,12.28,11.15,17.88,17.23l-.36.35Z" />
          <path class="cls-27"
            d="m158.54,204.61c-3.57,1.22-7.28,2.03-11.08,2.38-1.9.21-3.82.2-5.74.14-1.92-.12-3.84-.37-5.72-.73-3.76-.75-7.32-1.8-10.87-2.13-3.54-.35-7.13-.13-10.45.76-1.65.53-3.24,1.15-4.81,1.99-1.57.83-3.12,1.8-4.8,2.77-1.69.96-3.59,1.85-5.65,2.42-.52.12-1.04.27-1.56.36-.53.07-1.06.16-1.59.21-.53.08-1.06.04-1.59.06-.53,0-1.07.04-1.58-.04-2.08-.19-4.1-.6-6.03-1.26-1.92-.69-3.75-1.54-5.42-2.64-3.36-2.13-6.16-4.93-8.31-8.09l.35-.35c3.14,2.12,6.29,4.01,9.58,5.33,1.65.63,3.3,1.19,4.99,1.51,1.67.36,3.37.54,5.03.51,3.32.03,6.26-.89,9.52-2.41,1.64-.76,3.36-1.61,5.18-2.38,1.81-.79,3.76-1.4,5.73-1.86,3.97-.82,7.99-.8,11.86-.18,3.89.66,7.47,2.02,10.99,2.99,7,2.13,14.57,1.78,21.84.17l.14.48Z" />
          <path class="cls-27"
            d="m162.91,208.19c-.73-4.2-1.33-8.41-2-12.62-.3-2.11-.63-4.22-.88-6.34-.24-2.12-.47-4.24-.66-6.4-.16-2.16-.41-4.32-.34-6.69.05-1.17.22-2.43.63-3.67.41-1.25,1.03-2.34,1.69-3.35,1.4-2,3.21-3.66,5.23-4.81,2.01-1.17,4.19-1.92,6.43-2.16l.21.46c-1.62,1.52-3.13,2.94-4.42,4.44-1.29,1.5-2.35,3.06-3.17,4.67-.85,1.68-1.33,3.05-1.67,4.95-.36,1.86-.54,3.95-.58,6.03-.05,2.09-.04,4.2-.02,6.32-.02,2.12.03,4.24.06,6.36,0,4.25.07,8.49,0,12.76l-.5.05Z" />
          <path class="cls-27"
            d="m115.22,172.96c2.96-4.98,4.4-10.83,3.61-16.35-.19-1.39-.45-2.72-.91-4.02-.45-1.31-1-2.58-1.66-3.79-1.28-2.44-2.94-4.63-4.93-6.42-2-1.77-4.36-3.08-6.86-3.94-2.49-.88-5.08-1.47-7.75-1.82-2.67-.35-5.42-.43-8.22-.26-2.8.18-5.64.6-8.59,1.13l-.2-.46c2.4-1.86,5.18-3.22,8.14-4.13,2.95-.91,6.1-1.38,9.27-1.27,3.17.09,6.37.84,9.27,2.24,2.9,1.4,5.52,3.36,7.74,5.64,2.2,2.31,3.92,5,5.14,7.86.6,1.43,1.09,2.91,1.45,4.41.38,1.51.54,3.1.6,4.62.09,3.09-.41,6.15-1.4,9-.98,2.85-2.43,5.52-4.29,7.83l-.41-.29Z" />
          <path class="cls-27"
            d="m188.3,225.41c-5.91,3.04-12.38,5.04-19.06,6.01-3.35.45-6.76.57-10.13.45-3.37-.14-6.68-.49-9.91-.66-6.48-.43-12.59.7-18.68,2.22-3.05.78-6.08,1.74-9.1,2.89-3.02,1.14-6.03,2.44-9.14,3.71l-.28-.41c2.32-2.47,4.97-4.6,7.84-6.44,2.87-1.85,5.96-3.39,9.23-4.53,3.26-1.16,6.72-1.84,10.2-1.99,3.48-.14,6.95.13,10.29.57,6.68.89,12.97,2.09,19.45,1.71,3.22-.14,6.46-.56,9.66-1.23,3.19-.69,6.35-1.6,9.44-2.75l.2.46Z" />
        </g>
        <path class="cls-22"
          d="m7.97,125.65c1.14,7,3.19,16.88,7.14,28.29,3.86,11.14,11.84,30.41,27.72,50.33,3.82,4.8,11.84,14.32,23.86,24.44,2.14,1.81,11.01,9.18,24.22,17.12,7.09,4.26,19.88,11.88,38.03,17.82,9.07,2.96,16.28,4.47,20.42,5.31,5.81,1.19,16.47,3.31,30,3.77,6.36.21,25.51.47,49.27-6.07,11.27-3.1,20.73-6.95,28.2-10.5-1.59-2.62-3.18-5.23-4.77-7.85-16.07,6.62-60.07,22.18-112.28,8.34-8.28-2.19-39.04-11.14-68.99-36.68-22.31-19.02-34.27-38.71-43.38-54-9.32-15.63-15.45-29.76-19.44-40.33Z" />
      </g>
      <path class="cls-3"
        d="m395.43,260.9c-.36.9-3.93,10.34,1.58,18.57,4.87,7.26,15.26,11.26,24.15,6.75,8.5-4.32,12.42-14.79,8.7-23.95" />
      <path class="cls-3"
        d="m482.95,236.15c-.18.95-1.88,10.9,5.11,17.92,6.17,6.19,17.14,8.13,25,1.99,7.51-5.87,9.35-16.9,3.94-25.17" />
      <g>
        <path class="cls-26"
          d="m348.76,561.66c-55.31,73.17,38.13,185.05,115.96,161.31,22.73-1.57,41.35-9.42,55.65-23.88,26.13-3.23,46.88-24.32,57.06-49.02,17.21-9.8,24.53-31.04,18.83-48.07,19.43-40.14-65.25-125.38-101.42-110.24-12.39-7.71-40.52-7.84-58.46,4.99-19.67.2-47.78,11.27-55.68,31.46-13.1-.21-29.21,14.59-31.94,33.44Z" />
        <g class="cls-14">
          <path class="cls-10"
            d="m350.6,568.37c2.73-18.85,18.84-33.65,31.94-33.44,7.9-20.19,36.01-31.27,55.68-31.46,17.94-12.84,46.07-12.7,58.46-4.99,28.6-11.96,87.51,38.81,101.32,80.44-9.14-42.62-73-99.77-103.17-87.15-12.39-7.71-40.52-7.84-58.46,4.99-19.67.2-47.78,11.27-55.68,31.46-13.1-.21-29.21,14.59-31.94,33.44-18.19,24.06-20.29,52.32-12.14,78.56-5.82-24.29-2.66-49.82,13.99-71.84Z" />
        </g>
        <path class="cls-20"
          d="m332.99,637.25c-1.33-4.86-2.31-9.72-2.9-14.54-2.78-22.7,2.79-44.12,16.1-61.99,3.1-19.4,19.23-33.84,32.65-34.93,9.43-21.08,38.16-31.02,56.61-31.51,18.05-12.42,45.62-13.01,59.65-5.31,18.92-6.62,46.02,9.8,65.38,27.71,26.3,24.34,49.38,61.27,38.63,85.47,5.68,18.41-2.57,39.45-19.5,49.58-11.53,27.34-33.59,46.26-57.92,49.69-14.44,14.27-33.42,22.35-56.45,24-18.56,5.57-38.99,4-59.11-4.55-18.46-7.85-36.12-21.51-49.7-38.48-11.06-13.82-19.13-29.45-23.44-45.15Zm261.62-60.91c-5.11-18.62-20.39-39.92-37.92-56.14-23.32-21.58-47.17-31.86-60.74-26.18-.84.35-1.83.28-2.6-.2-12-7.46-38.78-6.94-55.33,4.9-.46.33-1.03.51-1.61.52-20.04.2-46.08,11.66-53.18,29.83-.39,1-1.42,1.66-2.57,1.64-11.4-.18-26.65,13.45-29.24,31.28-.06.39-.22.77-.46,1.1-29.89,39.54-13.41,87.39,9.78,116.35,23.27,29.06,64.18,53.06,103.14,41.17.21-.06.42-.1.64-.12,22.12-1.53,40.24-9.29,53.87-23.08.42-.43,1-.71,1.62-.78,22.99-2.84,44.02-21.02,54.9-47.44.21-.51.6-.95,1.1-1.23,15.45-8.8,23.21-28.66,17.68-45.21-.2-.58-.15-1.2.11-1.75,3.36-6.95,3.31-15.47.79-24.64Z" />
        <path class="cls-20"
          d="m349.98,604.94c-4.08-14.86-5.43-29.55-3.89-43.54.15-1.37,1.47-2.36,2.94-2.22,1.47.14,2.54,1.37,2.39,2.73-7.48,67.59,55.21,140.81,114.13,158.69,1.41.43,2.18,1.83,1.72,3.14-.46,1.31-1.98,2.02-3.38,1.59-30.38-9.22-62.21-32.98-85.14-63.56-13.82-18.43-23.54-37.76-28.77-56.83Z" />
        <path class="cls-20"
          d="m383.74,568.01c-3.73-13.58-5.71-27.05-5.72-39.79,0-1.37,1.2-2.49,2.68-2.49,1.48,0,2.68,1.11,2.68,2.49.02,34.47,14.98,74.52,40.01,107.13,27.17,35.4,61.73,57.16,97.31,61.27,1.47.17,2.51,1.41,2.33,2.78-.18,1.36-1.52,2.33-2.99,2.16-37.09-4.28-72.97-26.77-101.02-63.32-16.44-21.42-28.64-46-35.28-70.22Z" />
        <path class="cls-20"
          d="m436.7,535.93c-3.95-14.4-5.01-27.97-2.96-39.58.24-1.36,1.62-2.28,3.08-2.05,1.46.22,2.45,1.5,2.21,2.86-6.07,34.4,17.71,85.87,55.31,119.71,27.25,24.52,56.58,35.45,82.58,30.76,1.45-.26,2.85.61,3.14,1.97.28,1.35-.67,2.65-2.12,2.92-27.78,5-58.79-6.39-87.34-32.08-18.47-16.62-34.42-38.1-44.94-60.48-3.82-8.13-6.82-16.2-8.97-24.03Z" />
        <path class="cls-20"
          d="m490.76,528.4c-4.07-14.84-3.53-28,1.68-37.74.66-1.23,2.27-1.73,3.59-1.12,1.33.61,1.87,2.1,1.21,3.33-12.62,23.59,7.16,65.35,33.55,89.55,21.83,20.02,45.24,26.35,64.25,17.37,1.32-.62,2.94-.14,3.61,1.09.67,1.22.15,2.72-1.17,3.34-21.2,10.01-46.88,3.36-70.45-18.27-14.25-13.07-26.31-30.55-33.08-47.97-1.27-3.26-2.33-6.46-3.19-9.58Z" />
        <ellipse class="cls-26" cx="556" cy="539.97" rx="8.04" ry="30.72"
          transform="translate(-218.76 518.67) rotate(-42.59)" />
        <g>
          <g class="cls-19">
            <path class="cls-17"
              d="m356.85,545.59c.14-1.36.36-2.69.64-4-4.21,5.36-7.39,12-8.59,19.28,2.02-5.26,4.66-10.37,7.96-15.28Z" />
          </g>
          <g class="cls-19">
            <path class="cls-17"
              d="m520.37,699.09c26.13-3.23,46.88-24.32,57.06-49.02,17.21-9.8,24.53-31.04,18.83-48.07,1.84-3.8,2.74-8.01,2.84-12.5l.21.62c-.03-1.16-.12-2.32-.25-3.47-1.7-33.9-45.59-81.65-79.79-93.77,11.31,8.06,22.78,19.39,32.34,31.8-7.46-6.18-13.88-9.3-16.28-7.43-1.1.86-1.22,2.66-.54,5.11-3.32-1.66-6.64-3.32-9.96-4.98-2.34-1.17-4.72-2.36-7.31-2.95-5.04-1.15-10.33.05-15.27,1.52-5.43,1.62-11.24,3.98-13.25,9.15-.21.54-.44,1.08-.78,1.56-3.08,4.34-7.48,1.11-11.24-.52-5.97-2.6-12.98-.98-19.33.68-6.86,1.79-13.79,3.61-19.98,6.89-2.01,1.07-3.97,2.29-6.21,2.87-3.31.85-6.94.18-10.2,1.2-3.7,1.17-6.21,4.27-9.02,6.78-3.49,3.12-9.78,3.79-13.88,1.38-1.44-.85-2.9-1.5-4.57-.96-1.21.39-2.1,1.35-2.51,2.48-.82,2.27,0,4.5.81,6.64,2.12,5.57,5.13,11.86,11.28,13.41,2.57.65,5.32.32,7.9-.33,7.51-1.89,14.03-6.37,21.53-8.26,4.35-1.1,8.95-1.3,13.15-2.81,5.09-1.83,9.17-5.41,13.56-8.41,4.4-3,9.67-5.56,15.07-4.84,4.09.55,7.61,2.9,11.45,4.32,3.84,1.42,8.88,1.64,11.49-1.33,1.23-1.39,1.68-3.23,2.64-4.78,2.11-3.42,6.57-5.15,10.82-5.14,4.25.01,8.32,1.51,12.12,3.28.89.42,1.85.93,2.18,1.81.29.79-.03,1.66-.45,2.4-2.45,4.38-8.34,7.24-8.3,12.31.02,1.84.9,3.6,2.32,4.89,3.66,3.33,9.41,2.95,13.42.62,1.17-.68,2.51-1.11,3.88-1,4.69.35,4.16,5.42,6.04,8.62,3.24,5.53,12.73,4.25,17.59,8.64,2.26,2.04,3.17,5.02,3.72,7.89.43,2.25.68,4.64-.2,6.78-2.2,5.4-9.9,6.48-16.09,5.93-6.19-.55-13.19-1.65-18.01,1.99-3.96,2.99-5.48,8.64-10.26,10.3-3.38,1.17-7.75.02-9.76,3.73-.35.64-.54,1.34-.64,2.05-.93,6.51,4.66,13,11.59,13.9,6.32.82,12.37-2.52,17.31-6.25.4-.3.8-.61,1.2-.92,5.1-3.97,13.09-1.55,14.48,4.48.01.05.02.09.03.14.38,1.74.42,3.59-.22,5.27-1.11,2.94-4.1,4.93-7.17,6.21-5.83,2.43-12.56,2.94-18.74,1.42,4.69,3.32,9.43,6.66,14.78,8.96l.07.03c3.95,1.69,5.21,6.3,2.66,9.56-7.24,9.27-16.37,16.38-26.9,19.7-5.66,1.79-10.81,4.69-15.25,8.4-11.04,9.21-24.7,14.14-40.88,14.96-61.79,19.34-138.03-71.79-113.16-139.89-54.58,73.17,38.63,184.54,116.3,160.85,22.73-1.57,41.35-9.42,55.65-23.88Zm23.91-159.24c-.58-.84-.78-1.57-.75-2.24,1.14,1.49,2.37,3.02,3.68,4.56-1.19-.51-2.22-1.29-2.93-2.32Zm13.82,21.88c-1.14-.9-2.32-1.95-2.52-3.32-.17-1.11.35-2.2.66-3.29.31-1.05.4-2.13.31-3.21,6.13,5.66,11.91,9.61,15.87,10.89.92,3.1,1.62,6.13,2.02,9.06,0,0,0,0,0,0-5.85-2.77-11.34-6.18-16.33-10.13Z" />
          </g>
        </g>
        <path class="cls-20"
          d="m532.2,522.92c-.97-3.54-.5-6.08,1.41-7.58,2.8-2.19,7.45-1.17,13.82,3.02,5.28,3.47,11.31,8.82,16.97,15.04,8.32,9.15,20.62,26.01,13.98,31.2h0c-6.63,5.18-22.48-8.91-30.79-18.06-5.66-6.23-10.32-12.64-13.12-18.05-1.07-2.07-1.83-3.92-2.28-5.57Zm4.9-3.74c-.77,2.08,3.4,11.84,14.6,24.16,11.2,12.32,20.86,17.78,23.21,17.43.77-2.08-3.4-11.84-14.6-24.16-11.2-12.32-20.86-17.78-23.21-17.43Zm37.75,41.71h0s0,0,0,0Z" />
        <path class="cls-11"
          d="m597.18,579.78c-.17-5.71-1.4-11.39-3.6-16.71-1.04-2.51-2.38-5.05-4.71-6.66-2.32-1.61-5.86-1.99-8.03-.2-2.29,1.89-3.02,5.86-6.09,5.97-.94.03-1.83-.36-2.67-.76-5.77-2.75-11.19-6.12-16.12-10.03-1.14-.9-2.32-1.95-2.52-3.32-.17-1.11.35-2.2.66-3.29,1.28-4.4-1.05-9.47-5.35-11.66-3.02-1.54-7.5-2.66-7.37-5.85.07-1.83,1.86-3.22,2.35-5,.96-3.44-2.96-6.21-6.33-7.89-4.9-2.45-9.8-4.9-14.7-7.35-2.34-1.17-4.72-2.36-7.31-2.95-5.04-1.15-10.33.05-15.27,1.52-4.96,1.48-10.23,3.57-12.64,7.86-.87,1.56-1.4,3.43-2.98,4.4-2.9,1.79-6.5-.7-9.65-2.07-5.97-2.6-12.98-.98-19.33.68-6.86,1.79-13.79,3.61-19.98,6.89-2.01,1.07-3.97,2.29-6.21,2.87-3.31.85-6.94.18-10.2,1.2-3.66,1.15-6.15,4.2-8.92,6.7-2.77,2.5-6.71,4.66-10.34,3.43-2.69-.91-4.9-3.58-7.71-3.05-1.9.36-3.15,2.19-3.32,3.98-.18,1.79.47,3.56,1.12,5.25,2.12,5.57,5.13,11.86,11.28,13.41,2.57.65,5.32.32,7.9-.33,7.51-1.89,14.03-6.37,21.53-8.26,4.35-1.1,8.95-1.3,13.15-2.81,5.09-1.83,9.17-5.41,13.56-8.41,4.4-3,9.67-5.56,15.07-4.84,4.09.55,7.61,2.9,11.45,4.32s8.88,1.64,11.49-1.33c1.23-1.39,1.68-3.23,2.64-4.78,2.11-3.42,6.57-5.15,10.82-5.14,4.25.01,8.32,1.51,12.12,3.28.89.42,1.85.93,2.18,1.81.29.79-.03,1.66-.45,2.4-2.37,4.24-7.96,7.05-8.28,11.81-.2,2.93,1.93,5.76,4.8,6.99,2.87,1.24,6.31,1.02,9.22-.15,2.24-.9,4.61-2.37,6.9-1.58,3.3,1.13,3.05,5.5,4.73,8.37,3.24,5.53,12.73,4.25,17.59,8.64,2.26,2.04,3.17,5.02,3.72,7.89.43,2.25.68,4.64-.2,6.78-2.2,5.4-9.9,6.48-16.09,5.93-6.19-.55-13.19-1.65-18.01,1.99-3.96,2.99-5.48,8.64-10.26,10.3-2.75.96-6.16.36-8.42,2.12-1.52,1.18-2.06,3.14-2.08,4.97-.07,6.05,5.23,11.75,11.69,12.59,6.32.82,12.37-2.52,17.31-6.25,4.94-3.74,9.6-8.12,15.63-10.04,2.42-.77,4.98-1.12,7.4-1.9,5.33-1.71,9.79-5.59,11.98-10.41,1.02-2.24,1.56-4.66,2.76-6.83,1.19-2.17,3.26-4.15,5.87-4.4,4.62-.44,8.6,4.57,13.11,3.53,4.59-1.06,4.99-6.98,3.91-11.25-1.65-6.52-4.34-12.8-7.96-18.59" />
        <g class="cls-9">
          <g class="cls-18">
            <path class="cls-10"
              d="m570.37,591.13c.34-.76.63-1.53.91-2.31-.44.89-.79,1.81-1.12,2.74.07-.14.15-.29.21-.43Z" />
          </g>
          <g class="cls-18">
            <path class="cls-10"
              d="m539.84,531.21c-.13,3.19,4.35,4.31,7.37,5.85,4.3,2.19,6.63,7.26,5.35,11.66-.32,1.08-.83,2.17-.66,3.29.21,1.37,1.39,2.42,2.52,3.32,4.93,3.91,10.35,7.28,16.12,10.03.84.4,1.73.79,2.67.76,3.07-.11,3.79-4.09,6.09-5.97,2.17-1.79,5.71-1.41,8.03.2.08.06.15.12.23.18l-1.05-3c.87,1.39,1.69,2.82,2.45,4.26,1.37,1.5,2.31,3.36,3.08,5.22,1.84,4.44,2.99,9.13,3.42,13.88.53-.95.84-2.07.98-3.25l.75,2.16c-.17-5.71-1.4-11.39-3.6-16.71-.77-1.85-1.7-3.72-3.08-5.22-.76-1.45-1.58-2.87-2.45-4.26l1.05,3c-.08-.06-.15-.12-.23-.18-2.32-1.61-5.86-1.99-8.03-.2-2.29,1.89-3.02,5.86-6.09,5.97-.94.03-1.83-.36-2.67-.76-5.77-2.75-11.19-6.12-16.12-10.03-1.14-.9-2.32-1.95-2.52-3.32-.17-1.11.35-2.2.66-3.29,1.28-4.39-1.05-9.47-5.35-11.66-2.84-1.44-6.97-2.52-7.34-5.3-.69,1.09-1.52,2.14-1.57,3.38Z" />
          </g>
          <g class="cls-18">
            <path class="cls-10"
              d="m506.89,606.1c2.25-1.75,5.66-1.16,8.42-2.12,4.79-1.66,6.3-7.31,10.26-10.3,4.82-3.64,11.82-2.54,18.01-1.99,6.19.55,13.89-.54,16.09-5.93.29-.7.44-1.43.52-2.17-3.01,3.87-9.62,4.65-15.06,4.17-6.19-.55-13.19-1.65-18.01,1.99-3.96,2.99-5.48,8.64-10.26,10.3-2.75.96-6.16.36-8.42,2.12-1.36,1.06-1.93,2.74-2.05,4.39.16-.16.32-.32.51-.46Z" />
          </g>
          <g class="cls-18">
            <path class="cls-10"
              d="m594.92,581.67l-.04-.12c0,.07-.02.14-.03.2.02-.03.04-.06.07-.09Z" />
          </g>
          <g class="cls-18">
            <path class="cls-10"
              d="m390.64,538.45c2.8-.53,5.02,2.14,7.71,3.05,3.63,1.23,7.56-.93,10.34-3.43,2.77-2.5,5.26-5.54,8.92-6.7,3.25-1.03,6.88-.35,10.2-1.2,2.23-.57,4.19-1.8,6.21-2.87,6.19-3.28,13.12-5.1,19.98-6.89,6.35-1.66,13.36-3.28,19.33-.68,3.15,1.37,6.76,3.86,9.65,2.07,1.57-.97,2.1-2.84,2.98-4.4,2.41-4.28,7.68-6.38,12.64-7.86,4.94-1.48,10.23-2.68,15.27-1.52,2.59.59,4.96,1.77,7.31,2.95,4.9,2.45,9.8,4.9,14.7,7.35,2.92,1.46,6.26,3.74,6.47,6.56.54-.84,1.15-1.67,1.41-2.6.96-3.44-2.96-6.21-6.33-7.89-4.9-2.45-9.8-4.9-14.7-7.35-2.34-1.17-4.72-2.36-7.31-2.95-5.04-1.15-10.33.05-15.27,1.52-4.96,1.48-10.23,3.57-12.64,7.86-.87,1.56-1.4,3.43-2.98,4.4-2.9,1.79-6.5-.7-9.65-2.07-5.97-2.6-12.98-.98-19.33.68-6.86,1.79-13.79,3.61-19.98,6.89-2.01,1.07-3.97,2.29-6.21,2.87-3.31.85-6.94.18-10.2,1.2-3.66,1.15-6.15,4.2-8.92,6.7s-6.71,4.66-10.34,3.43c-2.69-.91-4.9-3.58-7.71-3.05-1.9.36-3.15,2.19-3.32,3.98-.03.29-.03.57-.02.86.5-.45,1.1-.78,1.79-.91Z" />
          </g>
          <g class="cls-18">
            <path class="cls-10"
              d="m521.2,537.01c.4-.72.71-1.56.46-2.33-2.67,3.41-6.92,6.07-7.2,10.21,1.91-2.69,5.09-4.94,6.74-7.88Z" />
          </g>
        </g>
        <g class="cls-16">
          <g class="cls-18">
            <path class="cls-17" d="m597.18,579.78s0-.02,0-.03c0,0,0,0,0,0v.03Z" />
          </g>
          <g class="cls-18">
            <path class="cls-17"
              d="m415.68,530.41c.99-.89,1.94-1.85,2.93-2.77-3.05,1.15-5.3,3.62-7.65,5.83,1.74-.7,3.37-1.84,4.72-3.06Z" />
          </g>
          <g class="cls-18">
            <path class="cls-17"
              d="m487.5,513.48c-.22.4-.42.81-.62,1.23,1.08.15,2.13.04,3.09-.56,1.57-.97,2.1-2.84,2.98-4.4.42-.75.94-1.43,1.52-2.06-2.91,1.35-5.48,3.15-6.96,5.79Z" />
          </g>
          <g class="cls-18">
            <path class="cls-17"
              d="m584.44,576.17c-2.34.22-4.24,1.84-5.47,3.73,0,0,.02,0,.03,0,4.62-.44,8.6,4.57,13.11,3.53,2-.46,3.2-1.84,3.83-3.6-3.87-.22-7.43-4.05-11.49-3.66Z" />
          </g>
          <g class="cls-18">
            <path class="cls-17"
              d="m563.83,597.81c-2.42.78-4.98,1.12-7.4,1.9-3.89,1.24-7.21,3.51-10.41,5.97,1.57-.9,3.21-1.68,4.97-2.24,2.42-.77,4.98-1.12,7.4-1.9,2.98-.96,5.69-2.6,7.89-4.7-.79.37-1.61.7-2.44.97Z" />
          </g>
          <g class="cls-18">
            <path class="cls-17"
              d="m560.48,583.17c2.81-.9,5.13-2.49,6.18-5.07.87-2.14.63-4.52.2-6.78-.55-2.88-1.46-5.85-3.72-7.89-4.86-4.39-14.35-3.11-17.59-8.64-1.68-2.87-1.43-7.23-4.73-8.37-2.29-.79-4.66.68-6.9,1.58-2.9,1.17-6.34,1.38-9.22.15-2.87-1.24-5-4.06-4.8-6.99.33-4.76,5.91-7.57,8.28-11.81.42-.74.73-1.61.45-2.4-.32-.88-1.28-1.39-2.18-1.81-3.79-1.77-7.87-3.27-12.12-3.28-3.98-.01-8.16,1.52-10.4,4.53,1.58-.53,3.29-.8,4.96-.8,4.25.01,8.32,1.51,12.12,3.28.89.42,1.85.93,2.18,1.81.29.79-.03,1.66-.45,2.4-2.37,4.24-7.96,7.05-8.28,11.81-.2,2.93,1.93,5.76,4.8,6.99,2.87,1.24,6.31,1.02,9.22-.15,2.24-.9,4.61-2.37,6.9-1.58,3.3,1.13,3.05,5.5,4.73,8.37,3.24,5.53,12.73,4.25,17.59,8.64,2.26,2.04,3.17,5.02,3.72,7.89.43,2.25.68,4.64-.2,6.78-.2.49-.45.93-.74,1.34Z" />
          </g>
          <g class="cls-18">
            <path class="cls-17"
              d="m535.36,613.47c.29-.22.59-.45.88-.67-3.92,2.26-8.27,3.78-12.75,3.2-6.46-.84-11.75-6.54-11.69-12.59,0-.86.14-1.75.43-2.57-1.4.19-2.72.49-3.79,1.33-1.52,1.18-2.06,3.14-2.08,4.97-.07,6.05,5.23,11.75,11.69,12.59,6.32.82,12.37-2.52,17.31-6.25Z" />
          </g>
          <g class="cls-18">
            <path class="cls-17"
              d="m580.84,556.21c-.69.57-1.23,1.32-1.74,2.1.36.1.72.16,1.1.15,1.97-.07,2.98-1.74,4.05-3.42-1.25.03-2.46.4-3.41,1.18Z" />
          </g>
          <g class="cls-18">
            <path class="cls-17"
              d="m522.3,596.32c3.85-1.34,5.59-5.26,8.19-8.3-1.2.4-2.34.95-3.37,1.73-2.38,1.8-3.88,4.56-5.74,6.83.31-.07.62-.16.92-.26Z" />
          </g>
          <g class="cls-18">
            <path class="cls-17"
              d="m443.85,545.76c3.85-1.38,7.12-3.76,10.38-6.14-1.56.95-3.19,1.78-4.94,2.41-4.2,1.51-8.81,1.72-13.15,2.81-7.51,1.89-14.03,6.36-21.53,8.26-2.57.65-5.32.98-7.9.33-6.15-1.55-9.16-7.84-11.28-13.41-.65-1.7-1.3-3.46-1.12-5.25,0-.03.01-.06.01-.09-.68-.22-1.39-.31-2.14-.17-1.9.36-3.15,2.19-3.32,3.98-.18,1.79.47,3.56,1.12,5.25,2.12,5.57,5.13,11.86,11.28,13.41,2.57.65,5.32.32,7.9-.33,7.51-1.89,14.03-6.37,21.53-8.26,4.35-1.1,8.95-1.3,13.15-2.81Z" />
          </g>
          <g class="cls-18">
            <path class="cls-17"
              d="m496.44,534c-2.3.34-4.87-.08-7.06-.89-3.84-1.42-7.36-3.77-11.45-4.32-5.4-.73-10.68,1.84-15.07,4.84-1.12.77-2.22,1.57-3.32,2.37,3.93-2.36,8.39-4.09,12.95-3.48,4.09.55,7.61,2.9,11.45,4.32,3.84,1.42,8.88,1.64,11.49-1.33.41-.46.73-.98,1.01-1.51Z" />
          </g>
        </g>
        <path class="cls-25"
          d="m599.48,579.83c-.24-6.93-1.71-14.33-5.2-20.53-1.55-2.75-3.96-5.2-7.27-6.06-3.09-.8-6.48-.12-8.56,2.23-.89,1-1.53,2.12-2.27,3.21-.18.26-.36.54-.57.78.16-.19-.2.2-.26.25-.1.09-.22.21-.34.29.13-.09.24-.11-.08.01-.02,0-.34.16-.12.06.18-.09-.36-.04-.01,0-1.41-.15-2.74-1.03-3.97-1.66-1.55-.8-3.07-1.64-4.57-2.53-2.92-1.74-5.73-3.65-8.38-5.73-.96-.75-2.37-1.63-2.13-2.94.26-1.43.88-2.72.98-4.19.2-2.78-.73-5.75-2.48-8.01-.95-1.22-2.02-2.25-3.35-3.12-1.11-.73-2.39-1.22-3.61-1.77-1.09-.48-2.38-1.06-3.09-1.72-.11-.1-.23-.21-.33-.33.03.04.16.2.02,0-.03-.04-.24-.44-.14-.22.09.2-.04-.14-.04-.15-.07-.28-.08-.08-.04-.33.02-.16.15-.54.22-.7.56-1.16,1.53-2.24,1.97-3.52.56-1.59.32-3.28-.43-4.77-1.37-2.75-4.45-4.58-7.22-5.97-3.46-1.74-6.93-3.47-10.39-5.2-3.28-1.64-6.53-3.48-10.06-4.65-3.48-1.15-7.16-1.2-10.78-.7-3.28.45-6.51,1.36-9.62,2.42-3,1.02-5.88,2.27-8.36,4.18-1.18.91-2.22,2.01-3.04,3.22-.81,1.19-1.22,2.57-2.05,3.75-.61.88-1.26,1.06-2.16.94-1.17-.16-2.47-.81-3.57-1.35-2.91-1.41-5.71-2.43-9.02-2.64-3.18-.2-6.42.27-9.51.93-3.41.72-6.78,1.66-10.12,2.59-3.67,1.02-7.3,2.18-10.8,3.63-1.71.71-3.38,1.51-4.99,2.38-1.53.83-3.06,1.77-4.78,2.24-3.49.95-7.25.17-10.7,1.36-3.33,1.14-5.78,3.45-8.2,5.78-1.99,1.91-4.36,4.16-7.37,4.51-2.57.3-4.24-1.63-6.46-2.63-3.15-1.43-6.68-.83-8.58,2.08-1.94,2.98-.94,6.39.24,9.43.98,2.53,2.05,5.06,3.54,7.37,1.48,2.31,3.41,4.46,5.91,5.87,2.93,1.66,6.31,1.98,9.65,1.53,7.26-.97,13.55-5,20.23-7.52,3.51-1.32,7.16-1.92,10.87-2.55,3.75-.64,7.33-1.63,10.62-3.45,5.94-3.28,10.74-8.57,17.43-10.64,3.11-.96,6.08-.93,9.14.16,2.95,1.05,5.62,2.68,8.6,3.66,2.96.97,6.49,1.3,9.48.25,1.73-.61,3.15-1.59,4.24-2.98.92-1.18,1.39-2.58,2.07-3.89,2.71-5.17,9.59-5.4,14.81-3.86,1.52.45,2.99,1.02,4.42,1.66.68.31,1.34.63,1.99.99.42.23,0,.31.1-.02-.08.24-.11.5-.23.75-1.07,2.11-3.05,3.68-4.72,5.47-1.88,2.02-3.47,4.2-3.83,6.9-.39,2.89,1.08,5.92,3.42,7.81,2.68,2.16,6.14,2.94,9.63,2.55,1.74-.2,3.35-.7,4.94-1.38,1.15-.49,2.51-1.29,3.78-1.28.26,0,.51.03.76.14-.26-.11.44.29.3.19.21.16.45.48.73.99.22.41.32.73.51,1.31.2.62.38,1.25.57,1.87.81,2.58,2.1,4.7,4.5,6.27,1.97,1.29,4.38,1.96,6.67,2.58,1.16.31,2.33.61,3.48.97,1.22.38,1.88.61,2.93,1.17,1.06.57,1.68.98,2.45,1.97.91,1.16,1.43,2.52,1.81,3.9.69,2.5,1.43,5.83.17,8.12-1.04,1.88-2.98,2.95-5.15,3.53-2.58.69-5.13.8-7.84.61-6.99-.47-14.73-1.93-20.57,2.71-2.17,1.72-3.6,4.1-5.21,6.24-1.56,2.06-3.09,3.4-5.78,3.81-1.68.26-3.4.31-5.01.88-1.69.6-3.13,1.63-4.01,3.12-1.48,2.52-1.5,5.68-.69,8.4,1.54,5.18,6.27,9.67,12,10.8,7.24,1.42,14.03-2.02,19.55-6.03,5.44-3.95,10.28-8.87,17.16-10.6,3.5-.88,6.98-1.54,10.11-3.33,2.79-1.59,5.18-3.72,7.03-6.23,1.98-2.68,2.83-5.75,4.05-8.75.91-2.25,2.67-4.8,5.43-4.69.33.01.06-.03.48.06.27.06.55.13.82.21.64.19.77.26,1.41.55,1.1.51,2.16,1.09,3.26,1.59,2.59,1.16,5.31,1.76,8.06.65,5.3-2.13,5.4-8.88,4.33-13.31-1.62-6.73-4.51-13.27-8.22-19.23-1.48-2.37-5.48-.27-4,2.11,3.59,5.77,6.53,12.18,7.89,18.75.4,1.95.46,4.18-.32,6.12-.23.58-.78,1.27-1.34,1.58-.65.35-1.45.43-2.1.3-2.12-.42-3.97-1.72-6.13-2.61-2.81-1.16-5.85-1.49-8.61.04-3.1,1.71-4.68,4.76-5.8,7.81-.98,2.69-1.9,5.27-3.85,7.52-1.85,2.14-4.23,3.81-6.92,4.94-3.3,1.38-7.02,1.66-10.37,2.97-6.41,2.52-11.03,7.47-16.56,11.19-4.65,3.13-11.11,6.11-16.68,3.49-4.19-1.97-7.51-6.53-6.47-10.93.26-1.08.77-1.99,1.91-2.44,1.46-.57,3.18-.54,4.72-.78,2.96-.46,5.37-1.93,7.24-4.08,1.72-1.98,3.02-4.34,4.85-6.16,2.03-2.02,4.76-2.86,7.69-3,3.5-.17,6.95.36,10.43.61,2.74.2,5.58.07,8.26-.51,2.68-.58,5.41-1.71,7.3-3.61,2.15-2.17,3.04-5,2.89-7.92-.17-3.14-.89-6.49-2.44-9.3-1.31-2.37-3.46-4.17-6.05-5.28-2.26-.97-4.65-1.54-7.03-2.2-.51-.14-1.02-.29-1.52-.45-.27-.08-.53-.17-.8-.26-.14-.05-.79-.3-.56-.2-.49-.2-.97-.43-1.43-.69-.63-.36-.63-.36-1.06-.73-.19-.17-.37-.34-.55-.53-.26-.27.02.08-.2-.23-.28-.4-.63-1.04-.73-1.29-.47-1.17-.74-2.39-1.16-3.58-.97-2.75-2.84-5.13-6.2-5.35-3.26-.21-5.89,2-8.97,2.6-2.62.51-5.41-.02-7.24-1.9-.76-.78-1.28-1.77-1.4-2.77-.11-.94.17-1.94.59-2.71,1.13-2.03,2.91-3.51,4.57-5.28,1.98-2.12,4.68-5.17,3.26-8.13-.69-1.44-2.16-2.21-3.62-2.87-1.57-.71-3.18-1.38-4.83-1.92-6.07-2.01-13.23-2.02-18.29,2.14-1.13.93-2.07,2.08-2.72,3.34-.66,1.26-1.09,2.79-2.07,3.89-1.59,1.78-4.56,1.76-6.82,1.27-2.94-.64-5.52-2.17-8.24-3.32-3.16-1.33-6.37-2.13-9.86-1.75-7.19.77-12.66,5.33-18.19,9.22-2.67,1.88-5.53,3.65-8.75,4.57-3.62,1.04-7.41,1.33-11.08,2.19-7.01,1.64-13.01,5.52-19.78,7.72-2.92.95-6.23,1.81-9.29.95-2.15-.6-3.99-2.11-5.28-3.81-1.52-2.01-2.66-4.32-3.56-6.52-.85-2.09-2.74-5.48-1.03-7.55.23-.28.54-.47.84-.56.25-.07.12-.03.03-.03.16-.01.33-.01.49,0-.05,0-.26-.04.01,0,.2.03.4.09.59.16.28.09.74.34,1.17.59.57.33,1.13.69,1.7,1.03,2.72,1.62,5.8,2.18,8.9,1.12,3.22-1.1,5.68-3.16,8.03-5.42,2.13-2.05,4.3-4.26,7.42-4.87,1.67-.33,3.39-.27,5.08-.37,1.84-.11,3.61-.36,5.33-.99,1.82-.67,3.46-1.62,5.16-2.52,1.57-.84,3.19-1.58,4.85-2.26,3.31-1.35,6.77-2.37,10.24-3.31,3.2-.87,6.41-1.77,9.67-2.43,2.86-.58,5.81-.96,8.74-.62,2.84.33,5.08,1.72,7.63,2.79,2.97,1.25,6.32,1.8,8.95-.43,2.15-1.81,2.52-4.72,4.54-6.65,1.89-1.8,4.41-2.99,6.92-3.88,3.02-1.06,6.17-1.96,9.36-2.47,3.19-.51,6.38-.38,9.42.68,3.32,1.16,6.42,2.99,9.53,4.55,3.38,1.69,6.78,3.34,10.13,5.07,1.3.67,2.56,1.41,3.62,2.39.81.75,1.5,1.63,1.46,2.53-.05,1.07-.96,1.99-1.51,2.96-.77,1.34-1.18,2.75-.87,4.26.55,2.68,3.31,4.17,5.74,5.26,2.37,1.05,4.51,2,5.87,4.12,1.25,1.94,1.71,4.25,1.04,6.47-.48,1.61-1.06,3.2-.48,4.86.57,1.63,1.86,2.83,3.23,3.9,2.76,2.17,5.66,4.19,8.69,6.03,2.84,1.73,5.85,3.51,9,4.71,3.23,1.22,5.94-.3,7.69-2.8.31-.44.59-.9.88-1.35.24-.38.74-1.12.88-1.29.69-.81,1.47-1.2,2.42-1.24,2.83-.11,4.79,1.94,6.03,4.11,1.53,2.66,2.48,5.66,3.24,8.58.85,3.25,1.32,6.55,1.43,9.89.04,1.15.97,2.15,2.25,2.17,1.19.02,2.38-.93,2.34-2.09h0Z" />
        <path class="cls-15"
          d="m536.59,596.57c-1.3-1.39-3.57-1.91-5.42-1.24-.61.22-1.21.59-1.46,1.16-.4.87.16,1.91,1.02,2.42.86.51,1.92.6,2.94.6,1.08,0,2.27-.11,3.03-.83.76-.72.65-2.2-.39-2.47" />
        <path class="cls-15"
          d="m441.42,531.53c-1.39-1.49-3.83-2.04-5.8-1.32-.66.24-1.29.64-1.57,1.24-.43.93.17,2.05,1.09,2.59.92.54,2.06.64,3.15.64,1.16,0,2.43-.12,3.24-.89.81-.77.7-2.36-.42-2.64" />
        <path class="cls-15"
          d="m430.25,533.4c-.6-1.26-6.06-.01-8.64.57,0,0-5.32.88-7.25,3.9-.07.1-.13.21-.16.33-.07.35.21.68.53.88.97.61,2.29.49,3.38.09,1.52-.55,1.89-.88,3.17-1.4,2.74-1.12,3.78-.05,5.98-1.06,1.75-.8,3.36-2.52,2.98-3.31Z" />
      </g>
      <rect class="cls-4" x="204.26" y="585.15" width="97.75" height="36.96" rx="18.48" ry="18.48"
        transform="translate(-67.08 1174.51) rotate(-127.96)" />
      <rect class="cls-4" x="308.61" y="569.54" width="97.75" height="36.96" rx="18.48" ry="18.48"
        transform="translate(113.77 1231.58) rotate(-127.96)" />
      <rect class="cls-4" x="415.57" y="483.05" width="97.75" height="36.96" rx="18.48" ry="18.48"
        transform="translate(110.81 1086.49) rotate(-106.04)" />
    </g>
  </g>
</svg>