<?xml version="1.0" encoding="UTF-8"?>
<svg id="Layer_2" data-name="Layer 2" xmlns="http://www.w3.org/2000/svg" viewBox="0 0 610.01 670.44">
  <defs>
    <style>
      .cls-1 {
      opacity: .15;
      }

      .cls-1, .cls-2 {
      fill: #3d1d55;
      }

      .cls-3 {
      opacity: .7;
      }

      .cls-4 {
      fill: #fff;
      }

      .cls-5 {
      stroke-width: 20px;
      }

      .cls-5, .cls-6, .cls-7, .cls-8, .cls-9, .cls-10 {
      stroke-miterlimit: 10;
      }

      .cls-5, .cls-11, .cls-7, .cls-8 {
      stroke: #212327;
      }

      .cls-5, .cls-7, .cls-8, .cls-12 {
      fill: #ffcd01;
      }

      .cls-6 {
      stroke-width: 28px;
      }

      .cls-6, .cls-13 {
      fill: #232325;
      }

      .cls-6, .cls-9 {
      stroke: #232325;
      }

      .cls-11 {
      fill: #7c0000;
      stroke-linejoin: round;
      stroke-width: 7px;
      }

      .cls-11, .cls-10 {
      stroke-linecap: round;
      }

      .cls-7 {
      stroke-width: 16.38px;
      }

      .cls-14 {
      opacity: .3;
      }

      .cls-15 {
      fill: #212327;
      }

      .cls-16 {
      opacity: .5;
      }

      .cls-16, .cls-17 {
      fill: #cdc2b8;
      }

      .cls-18 {
      fill: #ffac73;
      }

      .cls-19 {
      fill: #b199c5;
      }

      .cls-20 {
      opacity: .36;
      }

      .cls-8 {
      stroke-width: 15.2px;
      }

      .cls-9 {
      fill: #f9f7ed;
      opacity: .88;
      stroke-width: 10px;
      }

      .cls-10 {
      fill: none;
      stroke: #1d1d1b;
      stroke-width: 13px;
      }

      .cls-21 {
      fill: #1d1d1b;
      }

    
    </style>
  </defs>
  <g id="Layer_2-2" data-name="Layer 2">
    <g>
      <g>
        <g >
          <path class="cls-9"
            d="m421.33,208.22c4.64-11.46,21.71-57.39,2.63-110.51-23.11-64.36-80.96-88.23-89.97-91.78-20.92,23.57-30.59,46.11-35.33,60.34-22.9,68.73.7,149.09,52.25,194.83,16.09,14.28,32.03,22.64,42.62,27.35,9.27-26.75,18.54-53.5,27.81-80.25Z" />
          <path class="cls-21"
            d="m370.27,240.91c1.44-16.36,1.57-33.01-1-49.23-1.34-7.11-1.81-14.62-1.3-21.9.35-5.22,1.12-10.52,2.42-15.59,1.38-5.99,3.95-11.36,2.82-17.31-.37-1.81-1-3.66-1.79-5.32-1.67-3.58-4.72-5.95-7.49-8.84-5.99-6.07-10.72-13.17-15.08-20.21-9.54-14.49-11.62-32.5-6.13-48.83,0,0,.49.11.49.11-1.74,12.14-1.03,24.49,3.96,35.62,1.59,3.62,3.64,7.03,5.9,10.41,4.58,6.84,9.05,13.56,14.47,19.49,1.34,1.51,2.77,2.94,4.22,4.62,2.63,2.91,4.39,6.72,5.28,10.56,1.87,7-1.35,14.27-3.15,20.63-1.11,3.9-1.91,7.86-2.44,11.88-1.06,8.13-.99,16.19.29,24.33,1.07,8.27,1.22,16.62,1.05,24.89-.2,8.29-.86,16.56-2.03,24.75,0,0-.5-.06-.5-.06h0Z" />
          <path class="cls-21"
            d="m369.14,174.88c-4.81-3-9.19-6.85-12.6-11.43-3.36-4.47-5.31-10.18-8.29-14.65-2.96-4.47-6.84-8.06-11.78-10.07-3.52-1.47-7.36-2.44-10.63-4.81-1.74-1.23-3.24-2.79-4.46-4.53-4.61-6.58-5.49-15.38-3.22-22.89,0,0,.5.05.5.05.63,7.19,2.1,14.27,6.72,19.83,3.15,4.12,8.34,5.94,13.01,8.35,5.34,2.67,9.81,7.23,12.71,12.33,1.95,3.43,3.17,7.06,4.64,10.4,2.78,6.77,7.84,12.41,13.69,17.01,0,0-.29.41-.29.41h0Z" />
          <path class="cls-21"
            d="m369.12,180.53c5.66-6.39,11.25-12.83,17.39-18.79,2.43-2.27,4.87-5.04,8.2-6.33,5.66-2.05,12.25-.28,16.43,3.81,0,0-.22.45-.22.45-8.69-1.44-14.9-.63-21.78,5.09-6.64,5.26-13.02,10.85-19.67,16.13,0,0-.35-.36-.35-.36h0Z" />
          <path class="cls-21"
            d="m366.22,121.31c11.59-1.53,20.63-10.73,21.21-22.37.21-5.41-2.03-10.41-4.79-14.96-2.94-4.8-6.93-8.74-11.31-12.46,0,0,.22-.45.22-.45,2.96.68,5.78,1.97,8.35,3.68,17.75,11.14,14.61,38.25-4.87,45.4-2.83,1.04-5.81,1.61-8.78,1.64l-.03-.5h0Z" />
          <path class="cls-21"
            d="m371.87,211.09c-6.09-2.65-11.74-6.39-16.72-10.95-4.94-4.5-8.72-10.29-12.52-15.65-7.77-10.55-18.81-17.04-30.2-23,0,0,.14-.48.14-.48,6.81.52,13.44,2.73,19.3,6.27,12.06,6.86,16.2,21.43,25.06,31.1,4.33,4.86,9.53,8.95,15.16,12.26,0,0-.23.45-.23.45h0Z" />
        </g>
        <path class="cls-17"
          d="m334.98,8.33c-4.7,5.31-11.05,13.15-17.38,23.44-6.18,10.04-16.05,28.41-21.43,53.31-1.29,6-3.59,18.23-3.82,33.94-.04,2.8-.14,14.34,2.07,29.59,1.19,8.19,3.38,22.91,10.27,40.72,3.44,8.9,6.85,15.43,8.81,19.17,7.14,13.61,13.96,22.82,16.07,25.61,3.06,4.05,5.81,7.31,7.82,9.61,1.87-2.53,3.75-5.06,5.62-7.6-7.71-9.5-17.76-23.78-26.05-42.84-7.69-17.7-15.93-44.3-15.26-76.64.61-29.31,8.28-51.03,14.35-67.76,6.21-17.11,13.26-30.8,18.92-40.58Z" />
        <path class="cls-16"
          d="m330.18,234.95c4.75-6.76,11.42-15.67,20.08-25.57,9.95-11.37,16.08-18.4,25.54-25.82,17.51-13.74,25.32-12.45,38.79-25.49,7.68-7.43,12.52-14.98,15.39-20.17.35,3.33.62,7.44.57,12.16,0,0-.07,6.77-1,13.42-4.83,34.68-29.53,58.83-29.53,58.83-8.94,8.74-25.5,24.93-48.19,24.19-6.08-.2-11.06-1.56-14.45-2.76-2.4-2.93-4.81-5.86-7.21-8.79Z" />
      </g>
      <path class="cls-10"
        d="m153.5,155.42c1.57-3.95,3.53-9.85,4.48-17.22,1.01-7.84,3.43-26.71-7.67-41.55-10.61-14.18-33.06-23.99-49.2-15.53-7.72,4.05-16.43,13.55-15.45,25.11.64,7.62,5.62,17.66,15.56,20.02,9.92,2.35,17.94-4.57,18.8-5.34" />
      <rect class="cls-7" x="139.3" y="544.21" width="80.06" height="30.27" rx="15.14" ry="15.14"
        transform="translate(-343 290.63) rotate(-45)" />
      <rect class="cls-5" x="1.07" y="429.2" width="97.75" height="36.96" rx="18.48" ry="18.48"
        transform="translate(-301.93 166.44) rotate(-45)" />
      <rect class="cls-5" x="299.6" y="579.28" width="97.75" height="36.96" rx="18.48" ry="18.48"
        transform="translate(-337.75 686.32) rotate(-67.11)" />
      <path class="cls-11" d="m500.61,488.2s17.49,26.14,19.05,81.63c0,0-23.58-25.29-44.53-32.09" />
      <ellipse class="cls-6" cx="275.03" cy="376.94" rx="201.69" ry="265.7"
        transform="translate(-191.34 361.92) rotate(-52.04)" />
      <path class="cls-12"
        d="m444.88,260.75c78.83,88.54,98.11,204.67,39.64,279.63-68.52,87.82-217.85,85.84-333.55-4.42-10.28-8.02-19.95-16.47-28.98-25.27,102.83,41.09,218.12,18.25,282.63-64.44,41.38-53.04,53.8-120.36,40.26-185.49Z" />
      <path class="cls-13"
        d="m399.09,217.92c16.96,13.23,32.26,27.62,45.79,42.83,13.53,65.14,1.12,132.45-40.26,185.49-64.51,82.69-179.8,105.53-282.63,64.44-42.99-41.85-71.68-91.61-83.85-140.93,98.13,37.16,203.01,18.54,260.07-54.6,30.24-38.76,42.36-86.82,38.15-136.26,21.52,10.34,42.63,23.35,62.72,39.02Z" />
      <g class="cls-3">
        <path class="cls-4"
          d="m443.95,576.87c-7.3,4.52-17.26,9.96-29.68,14.77-2.84,1.1-10.9,4.14-22.03,6.95-5.11,1.29-23.87,5.8-49.71,6.35-14.99.32-35.54-.64-59.51-6.03-9.04-1.94-21.62-5.09-36.4-10.26-1.12-.39-4.84-1.7-9.38-3.46-10.39-4.02-25.25-10.44-43.33-20.54h-.01c-8.15-4.61-18.9-11.13-30.98-19.75-2.42-1.73-14.7-10.54-27.57-21.84-7.79-6.84-32.96-29.58-54.97-61.43-4.16-6.01-7.32-11.09-8.31-12.67-9.65-15.56-15.74-28.49-18.72-35.18-1.67-3.75-2.98-6.9-3.86-9.06-.32-.79-.72-1.78-1.16-2.9h0c-.29-.73-.51-1.32-.67-1.73-.13-.34-.24-.62-.27-.71-.02-.05-.18-.47-.35-.91-.31-.83-.62-1.65-.76-2.05-1.01-2.83-1.2-3.34-1.71-4.82-2.23-6.46-3.77-11.83-4.23-13.45-.94-3.32-1.68-6.18-2.22-8.37,1.35.51,2.72,1.02,4.11,1.52.95.35,1.9.68,2.84,1.01,1.11,5.12,3.03,13.06,6.19,22.5,21.32,63.68,67.94,102.24,96.58,125.92,24.76,20.48,43.13,30.61,47.54,33,19.02,10.32,35.18,16.01,54.07,22.67,15.74,5.55,27.6,9.76,44.61,13.36,11.92,2.52,29.78,6.21,53.42,6.02,19.7-.16,34.39-2.91,47.28-5.39,20.08-3.86,36.73-9.02,49.16-13.51Z" />
      </g>
      <g class="cls-20">
        <path class="cls-4"
          d="m370.18,567.18c1.98-9.03-52.52-9.75-109.15-58.49-24.93-21.46-40.13-43.5-76-54.72-5.7-1.78-38.46-12.03-44.95-1.81-9.24,14.53,35.31,69.42,91.96,98.06,64.13,32.43,135.89,27.23,138.14,16.97Z" />
      </g>
      <g class="cls-14">
        <path class="cls-2"
          d="m443.95,576.87c5.5-3.43,11.6-7.72,17.92-13.03,6.04-5.08,11.11-10.11,15.31-14.74,10.1-11.46,24.71-30.94,33.93-58.39,15.29-45.55,6.17-84.63.66-108.28-13.57-58.18-44.68-95.85-62.14-116.61-39.08-46.48-83.21-72.66-113.26-86.92.93,10.09,1.41,23.43-.14,38.96-2.59,26.04-9.54,44.94-11.55,50.19-9.07,23.72-21.57,41.58-31.96,53.81,15.29.73,76.83,5.44,122.46,54.67,47.38,51.12,58.66,129.82,28.76,200.35Z" />
      </g>
      <g>
        <path class="cls-12"
          d="m336.37,178.9c4.21,49.44-7.91,97.5-38.15,136.26-57.07,73.15-161.94,91.76-260.07,54.6-14.06-56.98-6.06-113.36,27.4-156.26,56.62-72.57,168.42-83.82,270.82-34.6Z" />
        <g class="cls-3">
          <path class="cls-4"
            d="m34.94,281.31c4-13.77,11.85-34.19,27.8-54.93,5.4-7.02,17.86-22.06,38.19-36,19.34-13.27,37.7-19.99,50.26-23.53.72.83,9.66,10.81,23.07,9.15,10.28-1.27,18.97-8.85,22-19.22,19.34-1.8,47.23-2.43,79.58,4.27,35.43,7.34,60.3,20.16,60.65,19.3.36-.9-26.72-14.7-59.92-23.15-16.28-4.14-29.79-5.85-34.42-6.39-11.38-1.33-20.58-1.64-25.96-1.72-19.26-.29-33.79,1.68-36.86,2.11-11.77,1.65-28.84,4.17-49.27,12.99-4.78,2.06-18.86,8.41-33.69,19.39-5.13,3.8-9.04,7.18-10.34,8.32-8.11,7.1-13.91,13.62-17.29,17.66-10.98,13.14-17.51,25.41-20.73,32.08-1.7,3.51-7.21,15.27-11.26,31.55-.82,3.31-1.41,6.12-1.81,8.13Z" />
        </g>
        <path class="cls-1"
          d="m34.94,281.31c.72.03-.8,12.26,2.36,31.95,2.2,13.69,4.2,25.32,12.58,36.3,2.41,3.16,7.33,8.88,17.23,14.79,27.71,16.55,62,15.24,83.04,14.21,19.96-.98,44.19-2.37,74.03-13.76,32.85-12.55,55.55-30.76,68.55-42.94-20.32,22.91-41.11,35.93-54.67,43.03-3.14,1.64-15.26,7.85-32.22,13.24-6.27,1.99-27.44,8.39-56.31,9.92-9.28.49-17.06.36-22.59.13-7.21-.29-15.01-.89-23.31-1.94-7.97-1.01-15.39-2.31-22.2-3.76-6.62-1.37-13.68-3.1-21.09-5.29-8.82-2.61-13.33-3.76-15.26-5.04-7.63-5.05-10.04-14.78-11.65-27.14-4.3-33.1-.09-63.77,1.52-63.7Z" />
      </g>
      <ellipse class="cls-18" cx="68.53" cy="269.09" rx="13.96" ry="16.62"
        transform="translate(-149.45 97.07) rotate(-37.43)" />
      <ellipse class="cls-18" cx="239.57" cy="309.53" rx="13.96" ry="16.62"
        transform="translate(-151.83 311.28) rotate(-52.52)" />
      <g>
        <path class="cls-13"
          d="m216.55,243.36c-9.34-4.18-21.77,3.46-27.75,17.06-5.98,13.6-3.25,28.01,6.09,32.19,9.34,4.18,21.77-3.46,27.75-17.06,5.98-13.6,3.25-28.01-6.09-32.19Z" />
        <path class="cls-4"
          d="m213.93,249.02c-3.51.27-6.41,4.61-6.49,9.7-.08,5.09,2.7,8.99,6.21,8.72,3.51-.27,6.41-4.61,6.49-9.7.08-5.09-2.7-8.99-6.21-8.72Z" />
        <path class="cls-19"
          d="m193.59,275.79c-1.82.6-2.86,3.18-2.34,5.76.52,2.58,2.42,4.19,4.23,3.59,1.82-.6,2.86-3.18,2.34-5.76-.52-2.58-2.42-4.19-4.23-3.59Z" />
      </g>
      <g>
        <path class="cls-13"
          d="m136.16,214.45c-9.34-4.18-21.77,3.46-27.75,17.06-5.98,13.6-3.25,28.01,6.09,32.19,9.34,4.18,21.77-3.46,27.75-17.06,5.98-13.6,3.25-28.01-6.09-32.19Z" />
        <path class="cls-4"
          d="m133.54,220.11c-3.51.27-6.41,4.61-6.49,9.7-.08,5.09,2.7,8.99,6.21,8.72,3.51-.27,6.41-4.61,6.49-9.7.08-5.09-2.7-8.99-6.21-8.72Z" />
        <path class="cls-19"
          d="m113.2,246.88c-1.82.6-2.86,3.18-2.34,5.76.52,2.58,2.42,4.19,4.23,3.59,1.82-.6,2.86-3.18,2.34-5.76-.52-2.58-2.42-4.19-4.23-3.59Z" />
      </g>
      <path class="cls-15"
        d="m171.16,321.59c-9.94,6.4-23.02,7.09-34.51,2.23-12.22-5.14-17.97-16.01-20.21-27.35-.15-.63-.82-1.07-1.5-.99-.48.05-.83.35-.95.74-.93,3.07-1.29,6.37-1.06,9.78,1.66,23.81,33.54,37.25,53.3,24.49,2.93-1.96,5.37-4.47,6.88-7.38.28-.55,0-1.25-.64-1.56-.45-.22-.96-.19-1.32.05Z" />
      <rect class="cls-5" x="350.62" y="593.37" width="97.75" height="36.96" rx="18.48" ry="18.48"
        transform="translate(-152.72 1090.39) rotate(-97.77)" />
      <rect class="cls-5" x="46.53" y="462.07" width="97.75" height="36.96" rx="18.48" ry="18.48"
        transform="translate(-392.8 439.44) rotate(-73.96)" />
      <path class="cls-10"
        d="m251.25,156.42c-.07-4.25.19-10.47,1.91-17.69,1.84-7.69,6.25-26.2,21.89-36.14,14.94-9.5,39.42-10.72,51.51,2.91,5.78,6.52,10.56,18.49,5.55,28.96-3.3,6.9-11.52,14.53-21.64,13.21-10.11-1.31-15.16-10.63-15.69-11.65" />
      <g>
        <g class="animate-ping transition-all">
          <path class="cls-9"
            d="m406.31,193.61c4.02-11.69,21.31-57.54,70.58-85.07,59.69-33.36,119-13.38,128.12-10.14.3,31.51-7.2,54.86-12.98,68.71-27.87,66.87-98.43,111.98-167.34,112.63-21.51.2-39.02-3.96-50.1-7.35,10.57-26.26,21.15-52.52,31.72-78.78Z" />
          <path class="cls-21"
            d="m422.93,251.52c9.1-13.85,19.55-26.9,31.86-38.08,6.32-5.3,11.66-11.34,16.2-18.16,2.25-3.37,4.24-6.89,5.96-10.56,2.82-5.98,5.17-13.58,11.17-17.63,3.19-2.3,7.02-4.02,10.92-4.49,2.19-.31,4.21-.45,6.21-.71,7.98-.92,15.77-3.05,23.71-5.2,3.92-1.06,7.71-2.29,11.28-3.97,11.08-5.11,19.72-13.96,26.38-24.27,0,0,.44.23.44.23-6.6,15.94-19.95,28.12-36.68,32.8-7.9,2.44-16.14,4.69-24.64,5.34-3.99.36-7.84.14-11.46,1.75-1.69.74-3.38,1.72-4.84,2.84-4.76,3.75-6.35,9.48-9.24,14.91-2.35,4.67-5.25,9.18-8.41,13.35-4.4,5.83-9.69,11.18-15.36,15.66-12.59,10.54-23.42,23.19-33.08,36.47,0,0-.41-.28-.41-.28h0Z" />
          <path class="cls-21"
            d="m467.61,202.25c7.44.37,14.96-.56,21.5-3.84,3.31-1.55,6.6-3.49,10.33-4.79,5.54-1.94,11.9-2.45,17.68-.95,5.11,1.25,10.21,3.28,15.29,2.25,7.13-1.16,12.89-5.54,18.09-10.54,0,0,.41.29.41.29-3.22,7.15-9.66,13.21-17.46,15.15-2.06.51-4.22.69-6.34.48-4.02-.35-7.56-2.15-11.17-3.35-5.04-1.73-10.33-1.57-15.5-.15-5.18,1.42-10.4,4.44-15.87,5.61-5.58,1.22-11.41,1.25-17.01.35,0,0,.05-.5.05-.5h0Z" />
          <path class="cls-21"
            d="m463.36,207.05c-1.16-6.28-2.1-12.57-3.16-18.86-.68-4-1.27-8.34-2.68-12.07-1.97-5.61-6.55-9.12-11.5-12.29,0,0,.13-.48.13-.48,5.84-.34,11.98,2.65,14.9,7.92,1.66,3.16,1.68,6.85,2.03,10.16.18,2.15.31,4.29.43,6.42.24,6.39.32,12.79.35,19.17,0,0-.5.04-.5.04h0Z" />
          <path class="cls-21"
            d="m504.58,164.61c-18.8-16.89-4.55-48.03,20.6-44.44,3.06.4,6.04,1.28,8.72,2.7l-.12.48c-5.75-.08-11.34.28-16.71,1.97-5.06,1.61-10.04,3.92-13.43,8.14-3.3,4.25-5.21,9.85-5,15.29.14,5.57,2.55,11.1,6.31,15.51l-.35.35h0Z" />
          <path class="cls-21"
            d="m441.84,227.77c6.42,1.21,13.03,1.53,19.49.71,13.03-1.48,25.72-9.75,39.33-7,6.75,1.17,13.21,3.86,18.68,7.94,0,0-.21.45-.21.45-12.51-2.98-25.1-5.34-37.88-2.48-6.38,1.54-13.04,3.43-19.71,3.58-6.75.17-13.47-.72-19.8-2.72,0,0,.12-.49.12-.49h0Z" />
        </g>
        <path class="cls-17"
          d="m602.69,99.56c.06,7.09-.3,17.18-2.28,29.09-1.93,11.63-6.55,31.97-18.85,54.28-2.96,5.37-9.26,16.11-19.41,28.11-1.81,2.14-9.31,10.91-20.99,20.95-6.27,5.39-17.59,15.06-34.49,23.97-8.44,4.45-15.3,7.14-19.23,8.68-5.53,2.15-15.68,6.04-28.94,8.76-6.24,1.28-25.07,4.75-49.59,2.31-11.63-1.16-21.61-3.36-29.57-5.6,1.13-2.85,2.25-5.69,3.38-8.54,16.95,3.82,62.95,11.75,112.08-10.68,7.79-3.56,36.6-17.56,61.83-47.78,18.79-22.51,27.26-43.93,33.67-60.53,6.55-16.98,10.22-31.93,12.38-43.03Z" />
      </g>
    </g>
    <rect class="cls-8" x="188.19" y="556.31" width="74.29" height="28.09" rx="14.05" ry="14.05"
      transform="translate(-387.75 556.13) rotate(-67.11)" />
  </g>
</svg>