<svg width="137" height="22" viewBox="0 0 137 22" fill="none" xmlns="http://www.w3.org/2000/svg">
<path d="M0.853027 18V1.36768H3.18896C3.32373 1.36768 3.43978 1.37142 3.53711 1.37891C3.64193 1.38639 3.73177 1.40885 3.80664 1.44629C3.889 1.47624 3.96387 1.5249 4.03125 1.59229C4.09863 1.65967 4.16227 1.74951 4.22217 1.86182L9.19727 11.1045C9.32454 11.3516 9.44434 11.6061 9.55664 11.8682C9.66895 12.1302 9.78125 12.396 9.89355 12.6655C9.99837 12.381 10.1069 12.1077 10.2192 11.8457C10.339 11.5762 10.4626 11.3216 10.5898 11.082L15.4976 1.86182C15.5575 1.74951 15.6211 1.65967 15.6885 1.59229C15.7633 1.5249 15.842 1.47624 15.9243 1.44629C16.0067 1.40885 16.0965 1.38639 16.1938 1.37891C16.2912 1.37142 16.411 1.36768 16.5532 1.36768H18.8779V18H16.1602V7.26367C16.1602 7.06152 16.1639 6.84066 16.1714 6.60107C16.1864 6.36149 16.2051 6.12191 16.2275 5.88232L11.1963 15.3047C10.9567 15.7539 10.5936 15.9823 10.1069 15.9897H9.66895C9.1748 15.9897 8.81169 15.7614 8.57959 15.3047L3.49219 5.84863C3.51465 6.10319 3.53337 6.35026 3.54834 6.58984C3.5708 6.82943 3.58203 7.05404 3.58203 7.26367V18H0.853027ZM21.1465 11.8457C21.1465 11.0371 21.2738 10.2809 21.5283 9.57715C21.7904 8.86589 22.1647 8.24821 22.6514 7.72412C23.138 7.20003 23.7295 6.78451 24.4258 6.47754C25.1296 6.17057 25.9232 6.01709 26.8066 6.01709C27.5479 6.01709 28.2329 6.13688 28.8618 6.37646C29.4982 6.60856 30.041 6.95296 30.4902 7.40967C30.9469 7.86637 31.3026 8.4279 31.5571 9.09424C31.8117 9.75309 31.939 10.5093 31.939 11.3628C31.939 11.7896 31.894 12.0778 31.8042 12.2275C31.7144 12.3773 31.5384 12.4521 31.2764 12.4521H23.9653C24.0103 13.0586 24.1188 13.5827 24.291 14.0244C24.4632 14.4661 24.6841 14.833 24.9536 15.125C25.2306 15.4095 25.5601 15.6229 25.9419 15.7651C26.3237 15.9074 26.743 15.9785 27.1997 15.9785C27.6564 15.9785 28.0532 15.9261 28.3901 15.8213C28.7271 15.709 29.019 15.5892 29.2661 15.4619C29.5132 15.3271 29.7303 15.2074 29.9175 15.1025C30.1047 14.9977 30.2881 14.9453 30.4678 14.9453C30.7074 14.9453 30.8833 15.0314 30.9956 15.2036L31.8154 16.2368C31.501 16.6037 31.1453 16.9144 30.7485 17.1689C30.3592 17.416 29.9512 17.6144 29.5244 17.7642C29.1051 17.9139 28.6746 18.0187 28.2329 18.0786C27.7912 18.1385 27.3644 18.1685 26.9526 18.1685C26.1291 18.1685 25.3654 18.0337 24.6616 17.7642C23.9578 17.4946 23.3439 17.0941 22.8198 16.5625C22.2957 16.0234 21.884 15.3608 21.5845 14.5747C21.2925 13.7886 21.1465 12.8789 21.1465 11.8457ZM24.0327 10.7451H29.3896C29.3896 10.3783 29.3372 10.0339 29.2324 9.71191C29.1276 9.38249 28.9704 9.09424 28.7607 8.84717C28.5586 8.6001 28.2965 8.40544 27.9746 8.26318C27.6602 8.12093 27.2933 8.0498 26.874 8.0498C26.043 8.0498 25.3916 8.28564 24.9199 8.75732C24.4557 9.22152 24.16 9.88411 24.0327 10.7451ZM33.4663 12.1377C33.4663 11.2617 33.5824 10.4494 33.8145 9.70068C34.054 8.9445 34.3947 8.29313 34.8364 7.74658C35.2856 7.19255 35.821 6.76204 36.4424 6.45508C37.0638 6.14062 37.7601 5.9834 38.5312 5.9834C39.1901 5.9834 39.7516 6.08822 40.2158 6.29785C40.6875 6.50749 41.1068 6.78825 41.4736 7.14014V0.907227H44.3149V18H42.5854C42.2111 18 41.9715 17.8278 41.8667 17.4834L41.6309 16.3491C41.3838 16.6261 41.1255 16.877 40.856 17.1016C40.5864 17.3187 40.2944 17.5096 39.98 17.6743C39.673 17.8315 39.3398 17.9513 38.9805 18.0337C38.6286 18.1235 38.2467 18.1685 37.835 18.1685C37.1911 18.1685 36.5996 18.0374 36.0605 17.7754C35.5215 17.5059 35.0573 17.1165 34.668 16.6074C34.2861 16.0908 33.9904 15.4582 33.7808 14.7095C33.5711 13.9608 33.4663 13.1035 33.4663 12.1377ZM36.3975 12.1377C36.3975 12.8265 36.4499 13.4105 36.5547 13.8896C36.667 14.3688 36.828 14.7619 37.0376 15.0688C37.2472 15.3683 37.5018 15.5854 37.8013 15.7202C38.1007 15.855 38.4339 15.9224 38.8008 15.9224C39.3923 15.9224 39.8939 15.7988 40.3057 15.5518C40.7174 15.3047 41.1068 14.9565 41.4736 14.5073V9.21777C41.1517 8.82845 40.7998 8.55143 40.418 8.38672C40.0436 8.22201 39.6393 8.13965 39.2051 8.13965C38.7783 8.13965 38.389 8.22201 38.0371 8.38672C37.6927 8.54395 37.397 8.78727 37.1499 9.1167C36.9103 9.43864 36.7231 9.85417 36.5884 10.3633C36.4611 10.8649 36.3975 11.4564 36.3975 12.1377ZM46.8193 2.76025C46.8193 2.5057 46.868 2.26986 46.9653 2.05273C47.0627 1.82812 47.1899 1.63721 47.3472 1.47998C47.5119 1.31527 47.7028 1.18424 47.9199 1.08691C48.137 0.989583 48.3691 0.940918 48.6162 0.940918C48.8708 0.940918 49.1066 0.989583 49.3237 1.08691C49.5483 1.18424 49.743 1.31527 49.9077 1.47998C50.0724 1.63721 50.2035 1.82812 50.3008 2.05273C50.4056 2.26986 50.458 2.5057 50.458 2.76025C50.458 3.00732 50.4056 3.23942 50.3008 3.45654C50.2035 3.66618 50.0724 3.85335 49.9077 4.01807C49.743 4.17529 49.5483 4.30257 49.3237 4.3999C49.1066 4.49723 48.8708 4.5459 48.6162 4.5459C48.3691 4.5459 48.137 4.49723 47.9199 4.3999C47.7028 4.30257 47.5119 4.17529 47.3472 4.01807C47.1899 3.85335 47.0627 3.66618 46.9653 3.45654C46.868 3.23942 46.8193 3.00732 46.8193 2.76025ZM47.2124 18V6.19678H50.0649V18H47.2124ZM52.1201 14.9902C52.1201 14.5485 52.2362 14.1105 52.4683 13.6763C52.7078 13.242 53.0972 12.849 53.6362 12.4971C54.1828 12.1452 54.909 11.8569 55.8149 11.6323C56.7209 11.4002 57.8477 11.2692 59.1953 11.2393V10.543C59.1953 9.75684 59.0269 9.1766 58.6899 8.80225C58.353 8.42041 57.8664 8.22949 57.23 8.22949C56.7733 8.22949 56.3914 8.2819 56.0845 8.38672C55.7775 8.49154 55.508 8.61133 55.2759 8.74609C55.0513 8.88086 54.8454 9.00439 54.6582 9.1167C54.471 9.22152 54.2614 9.27393 54.0293 9.27393C53.8271 9.27393 53.6587 9.22152 53.5239 9.1167C53.3892 9.01188 53.2769 8.89209 53.187 8.75732L52.6816 7.84766C54.0368 6.60482 55.6727 5.9834 57.5894 5.9834C58.2782 5.9834 58.8921 6.0957 59.4312 6.32031C59.9777 6.54492 60.4382 6.85938 60.8125 7.26367C61.1868 7.66797 61.4714 8.15088 61.666 8.7124C61.8682 9.26644 61.9692 9.87663 61.9692 10.543V18H60.6777C60.4082 18 60.1986 17.9588 60.0488 17.8765C59.9066 17.7941 59.7943 17.6331 59.7119 17.3936L59.4536 16.5513C59.1541 16.8208 58.8621 17.0566 58.5776 17.2588C58.3006 17.4609 58.0086 17.6331 57.7017 17.7754C57.3947 17.9102 57.0653 18.0112 56.7134 18.0786C56.369 18.146 55.9834 18.1797 55.5566 18.1797C55.055 18.1797 54.5946 18.116 54.1753 17.9888C53.756 17.854 53.3929 17.6519 53.0859 17.3823C52.779 17.1128 52.5394 16.7796 52.3672 16.3828C52.2025 15.9785 52.1201 15.5143 52.1201 14.9902ZM54.8379 14.833C54.8379 15.3346 54.9839 15.694 55.2759 15.9111C55.5754 16.1208 55.9609 16.2256 56.4326 16.2256C57.0166 16.2256 57.522 16.1208 57.9487 15.9111C58.3755 15.7015 58.791 15.3833 59.1953 14.9565V12.9575C58.3643 12.995 57.6717 13.0661 57.1177 13.1709C56.5636 13.2757 56.1182 13.4105 55.7812 13.5752C55.4443 13.7324 55.201 13.9196 55.0513 14.1367C54.909 14.3538 54.8379 14.5859 54.8379 14.833Z" fill="white"/>
<path d="M65.0913 18V1.36768H70.4932C71.6012 1.36768 72.5633 1.4987 73.3794 1.76074C74.1955 2.02279 74.8656 2.38965 75.3896 2.86133C75.9212 3.32552 76.3143 3.8833 76.5688 4.53467C76.8309 5.18604 76.9619 5.8973 76.9619 6.66846C76.9619 7.47705 76.8271 8.21826 76.5576 8.89209C76.2881 9.55843 75.8838 10.1349 75.3447 10.6216C74.8132 11.1007 74.1431 11.4751 73.3345 11.7446C72.5259 12.0142 71.5788 12.1489 70.4932 12.1489H68.1797V18H65.0913ZM68.1797 9.73438H70.4932C71.0622 9.73438 71.5563 9.66325 71.9756 9.521C72.4023 9.37874 72.7542 9.1766 73.0312 8.91455C73.3083 8.64502 73.5142 8.32308 73.6489 7.94873C73.7912 7.56689 73.8623 7.14014 73.8623 6.66846C73.8623 6.22673 73.7912 5.82617 73.6489 5.4668C73.5142 5.10742 73.3083 4.80046 73.0312 4.5459C72.7617 4.29134 72.4136 4.09668 71.9868 3.96191C71.5675 3.82715 71.0697 3.75977 70.4932 3.75977H68.1797V9.73438ZM77.7031 11.8457C77.7031 11.0371 77.8304 10.2809 78.085 9.57715C78.347 8.86589 78.7214 8.24821 79.208 7.72412C79.6947 7.20003 80.2861 6.78451 80.9824 6.47754C81.6862 6.17057 82.4798 6.01709 83.3633 6.01709C84.1045 6.01709 84.7896 6.13688 85.4185 6.37646C86.0549 6.60856 86.5977 6.95296 87.0469 7.40967C87.5036 7.86637 87.8592 8.4279 88.1138 9.09424C88.3683 9.75309 88.4956 10.5093 88.4956 11.3628C88.4956 11.7896 88.4507 12.0778 88.3608 12.2275C88.271 12.3773 88.0951 12.4521 87.833 12.4521H80.522C80.5669 13.0586 80.6755 13.5827 80.8477 14.0244C81.0199 14.4661 81.2407 14.833 81.5103 15.125C81.7873 15.4095 82.1167 15.6229 82.4985 15.7651C82.8804 15.9074 83.2996 15.9785 83.7563 15.9785C84.2131 15.9785 84.6099 15.9261 84.9468 15.8213C85.2837 15.709 85.5757 15.5892 85.8228 15.4619C86.0698 15.3271 86.2869 15.2074 86.4741 15.1025C86.6613 14.9977 86.8447 14.9453 87.0244 14.9453C87.264 14.9453 87.4399 15.0314 87.5522 15.2036L88.3721 16.2368C88.0576 16.6037 87.702 16.9144 87.3052 17.1689C86.9159 17.416 86.5078 17.6144 86.0811 17.7642C85.6618 17.9139 85.2313 18.0187 84.7896 18.0786C84.3478 18.1385 83.9211 18.1685 83.5093 18.1685C82.6857 18.1685 81.922 18.0337 81.2183 17.7642C80.5145 17.4946 79.9006 17.0941 79.3765 16.5625C78.8524 16.0234 78.4406 15.3608 78.1411 14.5747C77.8491 13.7886 77.7031 12.8789 77.7031 11.8457ZM80.5894 10.7451H85.9463C85.9463 10.3783 85.8939 10.0339 85.7891 9.71191C85.6842 9.38249 85.527 9.09424 85.3174 8.84717C85.1152 8.6001 84.8532 8.40544 84.5312 8.26318C84.2168 8.12093 83.8499 8.0498 83.4307 8.0498C82.5996 8.0498 81.9482 8.28564 81.4766 8.75732C81.0124 9.22152 80.7166 9.88411 80.5894 10.7451ZM89.7871 14.9902C89.7871 14.5485 89.9032 14.1105 90.1353 13.6763C90.3748 13.242 90.7642 12.849 91.3032 12.4971C91.8498 12.1452 92.576 11.8569 93.4819 11.6323C94.3879 11.4002 95.5146 11.2692 96.8623 11.2393V10.543C96.8623 9.75684 96.6938 9.1766 96.3569 8.80225C96.02 8.42041 95.5334 8.22949 94.897 8.22949C94.4403 8.22949 94.0584 8.2819 93.7515 8.38672C93.4445 8.49154 93.175 8.61133 92.9429 8.74609C92.7183 8.88086 92.5124 9.00439 92.3252 9.1167C92.138 9.22152 91.9284 9.27393 91.6963 9.27393C91.4941 9.27393 91.3257 9.22152 91.1909 9.1167C91.0562 9.01188 90.9438 8.89209 90.854 8.75732L90.3486 7.84766C91.7038 6.60482 93.3397 5.9834 95.2563 5.9834C95.9451 5.9834 96.5591 6.0957 97.0981 6.32031C97.6447 6.54492 98.1051 6.85938 98.4795 7.26367C98.8538 7.66797 99.1383 8.15088 99.333 8.7124C99.5352 9.26644 99.6362 9.87663 99.6362 10.543V18H98.3447C98.0752 18 97.8656 17.9588 97.7158 17.8765C97.5736 17.7941 97.4613 17.6331 97.3789 17.3936L97.1206 16.5513C96.8211 16.8208 96.5291 17.0566 96.2446 17.2588C95.9676 17.4609 95.6756 17.6331 95.3687 17.7754C95.0617 17.9102 94.7323 18.0112 94.3804 18.0786C94.036 18.146 93.6504 18.1797 93.2236 18.1797C92.722 18.1797 92.2616 18.116 91.8423 17.9888C91.423 17.854 91.0599 17.6519 90.7529 17.3823C90.446 17.1128 90.2064 16.7796 90.0342 16.3828C89.8695 15.9785 89.7871 15.5143 89.7871 14.9902ZM92.5049 14.833C92.5049 15.3346 92.6509 15.694 92.9429 15.9111C93.2424 16.1208 93.6279 16.2256 94.0996 16.2256C94.6836 16.2256 95.189 16.1208 95.6157 15.9111C96.0425 15.7015 96.458 15.3833 96.8623 14.9565V12.9575C96.0312 12.995 95.3387 13.0661 94.7847 13.1709C94.2306 13.2757 93.7852 13.4105 93.4482 13.5752C93.1113 13.7324 92.868 13.9196 92.7183 14.1367C92.576 14.3538 92.5049 14.5859 92.5049 14.833ZM101.68 12.0815C101.68 11.2131 101.804 10.4082 102.051 9.66699C102.298 8.92578 102.661 8.28564 103.14 7.74658C103.627 7.20752 104.226 6.78451 104.937 6.47754C105.656 6.17057 106.479 6.01709 107.408 6.01709C108.291 6.01709 109.062 6.15934 109.721 6.44385C110.38 6.72835 110.975 7.13265 111.507 7.65674L110.766 8.70117C110.683 8.80599 110.601 8.88835 110.519 8.94824C110.436 9.00814 110.316 9.03809 110.159 9.03809C110.017 9.03809 109.875 8.99691 109.732 8.91455C109.598 8.82471 109.433 8.72363 109.238 8.61133C109.051 8.49902 108.823 8.40169 108.553 8.31934C108.291 8.22949 107.965 8.18457 107.576 8.18457C107.075 8.18457 106.637 8.27441 106.262 8.4541C105.888 8.63379 105.573 8.89209 105.319 9.229C105.072 9.56592 104.888 9.97396 104.769 10.4531C104.649 10.9323 104.589 11.4751 104.589 12.0815C104.589 12.7104 104.656 13.272 104.791 13.7661C104.926 14.2528 105.117 14.6646 105.364 15.0015C105.618 15.3309 105.925 15.5817 106.285 15.7539C106.644 15.9261 107.052 16.0122 107.509 16.0122C107.958 16.0122 108.321 15.9561 108.598 15.8438C108.883 15.7314 109.118 15.6079 109.306 15.4731C109.5 15.3384 109.669 15.2186 109.811 15.1138C109.953 15.0015 110.114 14.9453 110.294 14.9453C110.526 14.9453 110.698 15.0314 110.811 15.2036L111.619 16.2368C111.305 16.6037 110.964 16.9144 110.597 17.1689C110.23 17.416 109.848 17.6144 109.452 17.7642C109.062 17.9139 108.658 18.0187 108.239 18.0786C107.819 18.1385 107.404 18.1685 106.992 18.1685C106.266 18.1685 105.577 18.0337 104.926 17.7642C104.282 17.4946 103.717 17.0978 103.23 16.5737C102.751 16.0496 102.373 15.4132 102.096 14.6646C101.819 13.9084 101.68 13.0474 101.68 12.0815ZM113.405 18V0.907227H116.246V7.47705C116.703 7.04281 117.208 6.69092 117.762 6.42139C118.316 6.15186 118.964 6.01709 119.705 6.01709C120.349 6.01709 120.918 6.12565 121.412 6.34277C121.914 6.5599 122.329 6.86686 122.659 7.26367C122.996 7.66048 123.25 8.13216 123.422 8.67871C123.595 9.22526 123.681 9.82796 123.681 10.4868V18H120.839V10.4868C120.839 9.76807 120.675 9.21403 120.345 8.82471C120.016 8.4279 119.514 8.22949 118.84 8.22949C118.346 8.22949 117.886 8.3418 117.459 8.56641C117.032 8.78353 116.628 9.08301 116.246 9.46484V18H113.405ZM124.714 6.19678H127.207C127.432 6.19678 127.608 6.25293 127.735 6.36523C127.862 6.47005 127.956 6.58984 128.016 6.72461L130.52 12.8452C130.67 13.2645 130.797 13.6838 130.902 14.103C130.962 13.8859 131.029 13.6725 131.104 13.4629C131.179 13.2533 131.257 13.0436 131.34 12.834L133.709 6.72461C133.769 6.57487 133.87 6.45133 134.013 6.354C134.155 6.24919 134.316 6.19678 134.496 6.19678H136.764L130.34 21.2456C130.258 21.4478 130.149 21.5975 130.015 21.6948C129.88 21.7996 129.674 21.8521 129.397 21.8521H127.274L129.487 17.124L124.714 6.19678Z" fill="#FE7A4A"/>
</svg>
