<?xml version="1.0" encoding="UTF-8"?>
<svg id="Layer_2" data-name="Layer 2" xmlns="http://www.w3.org/2000/svg" viewBox="0 0 1317.91 1317.91">
  <defs>
    <style>
      .cls-1 {
        fill: #fff;
      }

      .cls-1, .cls-2, .cls-3, .cls-4, .cls-5 {
        fill-rule: evenodd;
      }

      .cls-2 {
        fill: #232325;
      }

      .cls-3 {
        fill: #ffcd01;
      }

      .cls-4 {
        fill: #dbdbdb;
      }

      .cls-5 {
        fill: #36393a;
      }
    </style>
  </defs>
  <g id="Layer_4" data-name="Layer 4">
    <g>
      <path class="cls-3" d="m658.96,0c363.93,0,658.96,295.02,658.96,658.96s-295.02,658.96-658.96,658.96S0,1022.89,0,658.96,295.02,0,658.96,0h0Z"/>
      <path class="cls-5" d="m977.14,840.45c.62.12,1.22.25,1.86.37-.64-.12-1.24-.25-1.86-.37h0Z"/>
      <path class="cls-5" d="m388.9,825.65c.69-.24,1.37-.47,2.04-.71-.67.24-1.35.47-2.04.71h0Z"/>
      <path class="cls-1" d="m908.15,805.58c-26.57-12.26-82.02-29.53-87.8-70.76-3.3-23.5-3.5-46.47-3.54-51.42-.16-22.46.48-45.45,2.55-69.52-30.06,55.99-79.7,91.77-151.85,90.26-50.53-1.05-95.03-43.07-123.93-98.79,3.81,29.36,5.91,57.4,6.67,85.24.03,1.26-.27,10.25-.6,19.81-1.41,41.16-46.84,70.72-87.14,84.69,103.3,179.98,334.16,183.89,445.65,10.5h0Z"/>
      <path class="cls-1" d="m667.86,704.91c72.16,1.51,121.8-34.27,151.86-90.26,10.37-19.32,18.38-41.07,24.2-64.51-.29-12.29,3.8-31.84,5.52-58.16,1.31-20.09,4.05-38.42,8.31-52.73,0-.1.01-.2.02-.3-.56.75-1.13,1.49-1.76,2.27-3.13-50.71-20.36-138.99-27.63-160.69-16.35-13.53-36.49-41.27-208.42-36.15-19.99-5.75-74.74,35.79-75.41,36.85-6.08,9.66-14.4,28.88-19.46,57.37-16.78,94.59-8.31,68.01-13.88,102.68-.93-.63-3.23-3.23-6.32-6.58.22,2.21.42,4.4.66,6.64,3.47,13.69,5.67,30.47,6.68,48.7.78,14.29,2.28,26.56,3.43,36.78,5.84,27.56,15.53,54.74,28.26,79.29,28.9,55.73,73.39,97.74,123.92,98.8h0Z"/>
      <path class="cls-2" d="m511.23,441.29c5.56-34.67-2.91-8.09,13.88-102.68,5.06-28.49,17.68-45.38,23.77-55.04,11.47-18.1,274.79,30.05,275.63,30.74,7.28,21.68,21.56,83.6,31.51,126.91.64-.78,1.2-1.53,1.76-2.27.03-.04.06-.09.1-.13,5.66-18.78,13.98-30.5,25.23-29.76,1.12.07,2.19.32,3.25.64,15.04-160.29-68.89-262.58-229.64-298.1,11.93,14.48,11.69,21.1,10.27,40.48-49.28-30.23-71.04-34.11-99.1-32.36,29.45,34.92,34.22,49.21,26.31,54.44-22.57-11.63-26.55-21.29-45.81-45.67,28.96,43.03-76.22,173.78-67.63,278.28,21.9,0,15.73,24.5,30.48,34.5h0Z"/>
      <path class="cls-1" d="m837.43,296.53c-.14.19-.24.39-.42.56.23-.12.36-.32.42-.56h0Z"/>
      <path class="cls-1" d="m822.59,313.43c.66.3,1.26.57,1.92.88-.1-.25-.79-.55-1.92-.88h0Z"/>
      <path class="cls-1" d="m519.01,376.33c-.24.01-.46-.06-.69-.09.21.12.44.17.69.09h0Z"/>
      <path class="cls-1" d="m520.89,524.85c-1.14-10.22-4.61-25.46-5.4-39.75-1.01-18.23-5.14-30.07-8.6-43.76-.78-3.06-1.63-5.95-2.53-8.67-5.44-16.39-13.21-26.47-23.61-25.89-2.62.14-5.05,1.04-7.27,2.51-14.68,9.69-20.28,45.93-8.54,80.15,13.52,39.43,21.75,75.07,41.62,73.97,13.8-.76,16.96-15.29,14.34-38.57Z"/>
      <path class="cls-1" d="m886.35,409.7c-1.05-.33-2.12-.57-3.25-.64-11.25-.73-19.57,10.98-25.23,29.76-.05.14-.08.29-.12.43-4.25,14.31-7,32.64-8.31,52.73-1.72,26.32-5.81,45.87-5.52,58.16.23,9.54,3.1,14.72,11.78,15.28,19.86,1.3,28.45-34.26,42.37-73.54,13.14-37.07,5.83-76.72-11.72-82.17Z"/>
      <path class="cls-4" d="m833.04,761.86c-130.2,17.07-265.4-79.63-289.01-155.66l.07.13.02.03.02.05.02.03v.04s.04.04.04.04l.02.04.02.04v.04s.04.04.04.04l.02.04.02.03.02.04.02.03.02.04.02.04.02.03v.04s.03.04.03.04l.02.03.02.04v.04s.03.04.03.04l.02.04c.24.46.49.92.73,1.39l.02.04.02.04.02.04.02.04.09.16v.03s.03.03.03.03l.02.05.02.03.04.07v.05s.06.07.06.07l.02.05.02.03v.04s.03.04.03.04l.02.03.02.04v.04s.04.04.04.04v.03s.04.03.04.03l.02.04.02.04.02.04.02.04.02.04.02.03.02.04.02.04v.04s.05.04.05.04c.2.37.4.75.61,1.12l.02.04.06.11.02.03.12.21.02.04v.03s.04.04.04.04l.02.04.02.03.15.26.02.04.02.04.02.04.02.03.02.04.02.04.02.03.02.05v.03s.03.04.03.04l.02.03.02.05.02.03.02.04.02.04.02.03.02.03.55.99.02.05.02.03.02.03.02.04v.03s.04.04.04.04l.02.04.02.04.09.16.02.04.02.04v.03s.03.05.03.05l.03.03.02.04v.03s.04.04.04.04l.02.03.02.04.02.04.04.07.02.04.02.04.02.04.02.04.02.04.02.04.02.03.02.04.03.03.02.04.05.08v.04s.73,1.26.73,1.26l.02.04.02.03.02.03.02.04.07.12.02.03v.04s.05.04.05.04l.03.07.03.04.25.43.02.04.04.07.02.04.02.03v.04s.03.03.03.03l.03.04.02.04v.04s.03.03.03.03l.02.03.02.04.02.04.03.03v.04s.59.99.59.99l.03.03.02.04.02.03.16.27v.03s.04.03.04.03l.02.04.02.03.02.04.02.04.02.03.02.03.02.04.02.03.02.03.02.04.02.03.02.03.02.04.02.03.02.04.02.03v.04s.04.03.04.03l.02.04.02.04.02.03.02.03c.26.43.51.86.77,1.29l.02.04v.03s.04.03.04.03l.12.21.02.03.02.04.02.03.02.04.02.03.02.04.02.03.02.04.02.03.02.04.02.03.02.04.02.04.02.03.02.04.02.03.02.04.02.04.02.03.02.04.02.03.02.04.02.04.02.03.02.04.02.04.02.03.03.04c.22.38.45.76.69,1.13l.03.04.02.04.02.03.02.03.09.15.02.03v.03s.04.05.04.05l.03.03.02.04.04.07.02.04.22.35v.03s.06.07.06.07l.02.04.02.03.02.04.03.04.02.03.02.03.02.04.02.03.02.03.66,1.04.02.03.02.04.02.03.02.04.21.32.02.04.03.03.02.03.02.03.02.04v.03s.04.04.04.04l.03.06.02.03.02.03.02.03.02.03.02.04.04.06.02.04.03.03v.03s.04.03.04.03l.02.03.02.03.02.03.02.03.02.03.02.03v.04s.04.03.04.03v.04s.04.03.04.03c.2.32.41.63.6.95l.02.03.02.03.02.03.02.03.02.04.23.35v.03s.04.03.04.03l.02.03.02.03.02.04.02.03.02.03.02.03.02.03.02.04.02.03.02.03.02.03v.03s.04.03.04.03l.02.03.02.03.02.03.02.03.02.04.02.03.02.03.02.03v.03s.03.03.03.03l.03.03v.03s.03.03.03.03l.02.04.02.03.02.03.58.87v.04s.04.03.04.03l.02.04.02.03.02.04.24.37.02.03.03.03v.03s.03.04.03.04l.02.03.02.04.02.03.03.04.02.03.02.03.02.03.02.03.02.04.02.03.02.04.02.03.02.04.02.03.02.03.02.03.02.03.02.03.02.03.02.03.03.03.02.03.02.03.02.03v.04s.03.03.03.03l.6.89.02.03.02.03.02.04.02.03.02.03.02.04.16.24.03.03.02.04v.03s.04.03.04.03l.02.04.02.04.02.03.02.03.03.03.02.04.02.03.04.06.03.03v.04s.04.03.04.03l.03.03.02.03.02.04.02.03.02.03.02.03.03.03.02.04.02.04.02.03.02.04.02.03.02.04.03.03.02.03.63.91.02.03.03.03v.03s.03.03.03.03l.03.03.14.19.02.03.02.03.03.03v.04s.04.03.04.03l.02.03.02.03.03.03.02.03.02.03.02.03.02.03.03.03.02.03.02.04.02.03.03.03.02.03.02.04.02.03.02.03.03.04.02.03.02.03.03.03v.03s.04.03.04.03l.81,1.14.03.03.02.03.16.24.03.03.02.03.02.03.02.03.02.04.02.03.03.03.02.03.06.1.02.03.03.03.02.03.16.22.03.03.02.03.02.04.02.03.02.03.03.03.02.03.02.03.02.03.02.03.03.03.02.03.02.03.57.79.02.03.03.03.02.03.02.03.02.03.2.26.02.03.03.03.02.03.02.03.02.03.02.03.03.03.29.4.02.03.02.03.02.03.02.03.05.06.02.03.02.03.02.03.02.03.02.03.03.03.02.03.02.03.02.03.59.79.02.03.02.04.02.03.26.35.02.03.02.03.02.03.02.03.02.03.02.03.02.03.02.03.02.03.02.03.02.03.02.03.03.03.02.03.02.03.04.06.02.03.02.03.02.02.02.03.02.03.02.03.02.03.02.03.02.03.02.03.02.03.02.03.02.03.03.03.03.06.03.03.02.03c.18.24.35.48.54.72l.02.03.02.03.02.03.02.03.32.42.03.03.02.03.02.03.02.03.02.03.02.03.02.03.02.03.02.03.02.03.03.03.02.03.02.03.02.03.02.03.02.03.02.03.02.03.02.03.02.03.02.03.03.03.02.03.02.03.02.03.02.03.02.03c.26.33.52.67.78.99l.02.03.02.03.16.21.03.03.02.03.02.03.02.03.03.03.02.03.05.06.02.03.32.39.02.03.03.03.02.03.02.03.02.03.03.03.02.03.03.03.02.03.02.03.03.03.02.03.02.03.03.03c.2.26.4.5.6.75l.02.03.02.03.03.03.26.32.02.03.02.03.02.03.02.03.03.03.02.03.02.03.02.03.02.03.03.03.02.03.02.03.02.03.03.02v.03s.04.02.04.02l.04.06.03.03.02.03.02.03.02.03.02.03.02.03.02.03.03.03.02.03.02.03.02.03.02.03.02.03.03.03.02.03.02.03.04.06.03.03.02.03.53.64.02.03.02.03.02.03.32.37.58.71.03.03.02.03.02.03.02.03.02.03.03.03.02.03.02.03.02.03.57.67.03.03.02.03.02.03.02.03.26.31.03.03.02.03.02.03.02.03.02.02.03.03.02.02.02.03.02.03.02.03.3.35.02.02.03.03.02.03.02.03.02.03.02.03.03.03.02.03.02.03.02.03.02.02.03.03.02.02.55.64.03.02.02.03.03.03.02.03.4.45.02.03.02.02.03.03v.03s.04.02.04.02l.02.03.03.03.02.02.05.05.02.02.02.02.03.03.02.03v.02s.04.03.04.03l.02.02.05.05.02.03.02.03.02.02.02.03.02.02.02.03.02.02.02.02.02.03.02.03.02.02.02.03.02.03.03.02c.21.24.41.47.63.71l.02.02.02.03.41.44v.03s.04.02.04.02l.02.02.02.03.02.03.02.02.02.03.02.03.02.02.02.03.02.02.02.03.02.02.02.02.03.03.02.03.04.05.02.03.02.02.02.03.02.03.02.02.02.02.02.03.02.02.02.03.02.02.03.02.02.03.02.02.02.02.02.03.02.02.02.03.02.02c.19.21.38.41.57.62l.03.02.02.02.41.44.03.02v.02s.04.02.04.02l.02.02.02.02.02.03.02.02.02.02.02.02.02.02.03.02.02.03.02.02.03.03.02.02.02.03.02.02.02.03.02.02.02.03.02.02.02.02.02.03.02.02.02.02.02.03.02.02.02.02.02.02.02.02.03.03v.02s.04.03.04.03l.03.02v.02c.2.19.38.39.56.58l.03.02.02.03.02.02.02.03.49.51.02.02.02.02.02.02.02.02.02.02.02.03h.02s.02.04.02.04l.02.02.02.03.02.02.02.02.02.03.02.02.02.02.02.02.02.02.03.02.02.02v.03s.05.02.05.02l.02.02.02.02.02.03.02.02.02.02.02.02.02.02.03.02.02.02.02.02.02.02.02.02.02.03.02.02.02.02c.17.17.33.35.5.52l.02.02.02.02.03.03.02.02.03.02.34.35.03.02.03.03.02.03.02.03h.03s.02.04.02.04l.02.03.02.03.1.1.02.02.05.05.02.03.07.07.02.03.09.1.03.02.04.05.03.03.02.02.02.03.03.02.02.02.02.02.03.03.02.03.05.05.02.02.55.55.02.02.03.02.02.03.36.35.02.02.02.02.02.02.02.02.65.64.02.02.03.02.02.02.02.03.02.02.02.02.03.02.02.03.02.02.02.02.03.03.02.02.4.38.02.03.03.02.02.02.53.51.02.02.02.02.02.02.02.02.02.02.02.02.02.02.02.02.02.02.02.03h.02s.02.04.02.04l.02.02.02.02.02.02.02.02.03.02.02.02v.02s.04.02.04.02l.02.02v.02s.03.02.03.02l.02.02h.02s.03.04.03.04l.02.02v.02s.04.02.04.02l.02.02.02.02.02.02.64.62.03.02v.02s.46.42.46.42l.02.02h.03s.01.04.01.04l.03.02.02.02.02.02.03.02.02.03.02.02.19.17.02.02.02.02.03.02.02.02.21.19.02.02.02.02.02.02.02.02.02.02.02.02.03.02.02.02.02.02.02.02.02.02.02.02.03.02.39.36.02.02.03.02v.02s.04.02.04.02l.49.44.02.02.02.02.02.02.03.02.02.02v.02s.04.02.04.02l.02.02h.02s.03.04.03.04l.02.02.02.02.02.02.02.02.02.02.03.02.02.02.02.02.02.02.02.02.03.02.02.02.02.02.02.02.02.02h.02s.03.04.03.04l.02.02.02.02.02.02.02.02.02.02.02.02.03.02.02.02.02.02c.21.19.41.36.61.55l.02.02.43.38.03.02h.02s.02.04.02.04l.02.02.03.02h0s.04.04.04.04l.02.02.56.49.03.02.02.02.07.06.02.02.03.02h.02s.02.04.02.04l.02.02.02.02.4.34.02.02.03.02.02.02h.02s.56.49.56.49l.02.02v.02s.04.02.04.02l.02.02.02.02.02.02.02.02.04.03.02.02.02.02.02.02.04.04.02.02.02.02.07.06.02.02.02.02.08.08.02.02.03.02.06.06.02.02.02.02h.02s.01.04.01.04l.03.02h.02s.02.03.02.03l.02.02.02.02.03.02.02.02.02.02.39.33v.02s.03.02.03.02l.02.02.02.02.66.54.02.02h.02s.02.03.02.03h.02s.02.03.02.03l.02.02h.02s.02.03.02.03l.12.1h.02s.04.05.04.05h.02s.02.03.02.03l.14.11.03.02.08.07h.02s.02.03.02.03l.02.02h.02s.01.03.01.03h.02s.02.03.02.03l.02.02.02.02.05.03h.01s.02.04.02.04h.03s.34.3.34.3l.02.02.02.02h.01s0,.01,0,.01l.46.37h0s.02.03.02.03h0s.01.01.01.01h0s0,.02,0,.02h.01s.01.02.01.02h0s.01.01.01.01h0s0,.02,0,.02h.02s.01.01.01.01h0s0,.02,0,.02h.02s.02.03.02.03h.01s.02.03.02.03h.03s.01.03.01.03l.02.02.02.02h.02s.02.03.02.03h.01s.02.03.02.03l.03.02h.02s.09.08.09.08l.02.02.04.03h.02s.02.03.02.03h.02s.02.03.02.03l.02.02h.02s.02.03.02.03l.04.03h.02s.01.03.01.03l.02.02.03.02h.01s.02.03.02.03l.02.02h.02s.02.03.02.03h.01s.02.03.02.03h.03s.41.34.41.34l.02.02.02.02h.02s.01.02.01.02h0s.01.02.01.02h0s.01.01.01.01h0s0,.02,0,.02h.01s.02.02.02.02h.01s.32.25.32.25h0s.03.03.03.03h0s.02.03.02.03h0s.01.02.01.02l.02.02h0s.01.01.01.01h0s0,.02,0,.02h.02s.01.02.01.02h0s0,.01,0,.01h.02s0,.02,0,.02h.02s.02.03.02.03h.02s.02.03.02.03h.02s.02.03.02.03h.02s.03.03.03.03v.02s.03.01.03.01l.03.02.02.02h.02s.02.03.02.03h.02s.02.03.02.03l.03.02h.01s.02.03.02.03l.04.03.02.02.04.03.02.02h.02s.02.03.02.03l.02.02h.02s.02.03.02.03l.02.02.02.02h.02s.02.03.02.03l.02.02h.02s.02.03.02.03l.02.02.02.02h.02s.02.03.02.03l.02.02h.02s.02.03.02.03l.41.3.02.02h.02s.57.44.57.44h.03s.02.04.02.04h.02s.02.03.02.03l.02.02h.02s.03.03.03.03v.02s.04.02.04.02h.02s.02.03.02.03l.02.02.25.18.02.02.18.13.02.02.02.02h.03s.02.03.02.03h.01s.03.03.03.03h.02s.02.03.02.03h.02s.02.03.02.03l.02.02h.03s.02.03.02.03l.02.02.34.24h.02s.02.03.02.03h.03s.01.02.01.02h0s0,.01,0,.01h.01s.01.02.01.02h.01s.31.23.31.23h0s0,.01,0,.01h.01s.01.02.01.02h.01s0,.01,0,.01l.02.02h0s0,.01,0,.01h.02s0,.01,0,.01h0s.02.01.02.01h0s.01.02.01.02h0s0,.01,0,.01h0s.01.01.01.01h0s0,.01,0,.01h.02s.02.02.02.02l.02.02h0l.04.03h.02s.02.03.02.03l.02.02h.03s.08.08.08.08h.03s.02.03.02.03l.18.13h.02s.14.11.14.11h.02s.03.03.03.03l.02.02h.02s.02.03.02.03h.02s.02.03.02.03l.02.02h.02s.03.03.03.03l.02.02h.02s.02.03.02.03l.03.02.02.02.45.32.59.4.02.02h.02s.02.03.02.03l.02.02h.02s.02.03.02.03h.02c.26.2.52.37.77.55l.02.02h.03s.02.03.02.03h.02s.02.03.02.03h.02s.03.03.03.03l.02.02h.02s.23.16.23.16l.02.02h.02s.03.03.03.03h.02s0,.02,0,.02h0s.01.01.01.01l.03.03h.01s.28.2.28.2h.02s0,.01,0,.01l.05.03h.01s0,.01,0,.01h.01s0,.02,0,.02h0s.01.01.01.01h0s.01.02.01.02h.01s.01.01.01.01h0s.01.01.01.01h.01s0,.01,0,.01h.02s0,.01,0,.01h.01s0,.01,0,.01h.01s0,.01,0,.01h.01s.01.02.01.02h0s.02.02.02.02l.03.02h.02s.02.03.02.03h.02s.02.03.02.03l.02.02.02.02h.02s.02.03.02.03h.02s.02.03.02.03l.02.02.04.03h.02s.09.07.09.07l.02.02.16.1h.02s.02.03.02.03l.09.06h.02s.03.03.03.03h.01s.02.03.02.03h.03s.02.03.02.03l.02.02h.02s.02.03.02.03h.02s.02.03.02.03h.02s.02.03.02.03l.32.2.02.02h.02s.02.03.02.03h0s.01.02.01.02h.01s.01,0,.01,0h0s.01.01.01.01h0s.26.17.26.17h0s0,.02,0,.02l.05.02h0s0,.02,0,.02h.01s0,.02,0,.02h.01s.01.01.01.01h0s.02.01.02.01h0s0,.01,0,.01h.02s0,.01,0,.01h.01s.02.01.02.01h0s0,.02,0,.02h.01s0,.01,0,.01h.02s0,.01,0,.01h.02s0,.02,0,.02h0s.01.01.01.01h0s0,0,0,0l.02.02h.03s.02.03.02.03h.02s.02.03.02.03h.02s.84.54.84.54l.02.02h.02s.02.03.02.03h.02s.02.03.02.03h.02s.02.03.02.03l.2.13h.02s.02.03.02.03h.02s.03.03.03.03h.01s.01.01.01.01c.16.1.31.19.47.29h.01s.01.01.01.01h0s.02.02.02.02h.01s0,.02,0,.02h.02s0,.01,0,.01h.02s.01.01.01.01h0s.02.01.02.01h0s.02.02.02.02h.01s.02.01.02.01h0s.02.01.02.01h.01s0,.01,0,.01h.02s0,.02,0,.02h.02s.02.02.02.02h.02s.02.03.02.03h.02s.02.03.02.03h.02s.02.03.02.03h.02s.02.02.02.02h.02s.02.03.02.03h.02s.61.38.61.38l.02.02h.02s.01.02.01.02h.02s.03.03.03.03h.02s.02.03.02.03h.02s.24.15.24.15h.01s.02.02.02.02h.03s0,.02,0,.02h.02s.01.02.01.02l.64.37h.02s.01.01.01.01h0s.02.02.02.02h0s.01.01.01.01h.02s.01.02.01.02h.01s.01.01.01.01h.02s.02.02.02.02h.01s.02.02.02.02h.02s.02.03.02.03h.02s.01.02.01.02h.02s.02.02.02.02h.02s.01.02.01.02l.02.02.04.02h.01s.04.04.04.04h.01s.03.02.03.02h.01s.04.03.04.03h.02s.03.03.03.03h.02s.01.03.01.03h.02s.18.11.18.11h.02s.03.04.03.04h.02s.01.02.01.02h.03s.02.03.02.03h.02s.02.02.02.02h.02s.02.02.02.02h.02s.02.03.02.03l.24.14h.02s.02.02.02.02h.02s.02.02.02.02h.01s.53.31.53.31h.01s.02.02.02.02h.03s.02.02.02.02h0s.01.02.01.02h.01s.02.02.02.02h.01s.01.01.01.01h.01s.01.02.01.02h.02s0,.01,0,.01h.01s.02.02.02.02h.01s.01.01.01.01h.01s.02.02.02.02h.01s.01.02.01.02h.01s.01.02.01.02h.02s.02.02.02.02h.02s.01.02.01.02h.02s.02.02.02.02h.02s.02.01.02.01h.02s.01.03.01.03h.02s.02.02.02.02h.02s.01.02.01.02h.02s.01.02.01.02h.02s.01.02.01.02l.04.02.02.02h.02s.02.02.02.02h.01s.02.02.02.02l.11.06.02.02h.02s.02.02.02.02h.02s.04.03.04.03h.02s.01.02.01.02h.02s.02.02.02.02h.02s.01.02.01.02h.02s.01.02.01.02h.02s.01.02.01.02h.02s.02.02.02.02h.02s.02.01.02.01h.02s.14.09.14.09h.02s.01.02.01.02h.02s.02.02.02.02h.01s.01.01.01.01l.55.3h.02s.03.02.03.02h.01s.03.02.03.02h.02s0,.01,0,.01h.02s0,.01,0,.01h.01s.01.02.01.02h.02s.01,0,.01,0h.02s.01.02.01.02h.01s.01.01.01.01h.01s.01.01.01.01h.01s0,.01,0,.01h.02s.02.02.02.02h.02s.01.02.01.02h.03s.02.02.02.02h.02s.02.02.02.02h.01s.03.02.03.02h.01s.02.02.02.02h.02s.02.02.02.02h.02s.02.02.02.02h.02s.02.02.02.02h.02s.02.02.02.02h.02s.01.02.01.02h.02s.02.02.02.02h.02s.02.02.02.02h.01s.02.02.02.02h.02s.02.02.02.02h.01s.03.02.03.02h.02s.02.02.02.02h.02s.01.01.01.01h.02s.02.02.02.02h.02s.02.02.02.02h.01s.02.02.02.02h.02s.02.02.02.02h.02c.11.06.21.12.32.18h.01s.02.02.02.02h.02s0,.01,0,.01h.01s.01.01.01.01h.01s0,.02,0,.02h.02s.02,0,.02,0h0s.44.23.44.23h.02s.01.01.01.01h0s.01.01.01.01h.01s.01.01.01.01h0s.01.01.01.01h0s.01.02.01.02h.01s.01.01.01.01h.01s.01.01.01.01h0s.01.01.01.01h.01s0,.01,0,.01h.02s.06.05.06.05h.02s.03.02.03.02h.02s.09.06.09.06h.02s.66.35.66.35h.02s.02.02.02.02h.02s.02.02.02.02h.02s.03.02.03.02h.02s.01.02.01.02h.03s.26.14.26.14l.02.02h0s.01,0,.01,0h0s.01.02.01.02h.01s.01.01.01.01h.01s.44.22.44.22h.01s.04.03.04.03h.01s0,.01,0,.01h.01s.01,0,.01,0h.01s.02.02.02.02h0s.01.01.01.01h.01s.01.01.01.01h.01s0,.01,0,.01h.01s.01,0,.01,0l.02.02h.02s.02.02.02.02h.02s.02.02.02.02l.9.44h.03s.01.02.01.02h.02s.03.02.03.02h.02s.02.02.02.02h.02s.02.02.02.02l.16.07h.02s.02.02.02.02h.02s.02.02.02.02l.52.24h.01s.01.01.01.01h.02s.01.01.01.01h.02s0,.01,0,.01h.03s.01.01.01.01h0s.01.01.01.01h.02s0,.01,0,.01h.02s.01.01.01.01h.01s0,.01,0,.01h.01s.01.01.01.01h.02s.03.02.03.02h.02s.02.02.02.02h.02s.02.02.02.02h.01s.03.02.03.02h.01s.02.01.02.01l.02.02h.03s.02.01.02.01v.02s.05,0,.05,0h.02s.02.02.02.02h.03s.01.02.01.02l.45.21h.02s.02.02.02.02l.04.02h.02s.02.02.02.02h.02s.02.02.02.02h.02s.02.02.02.02h.02s.02.02.02.02h.02s.21.11.21.11h.02s.02.02.02.02h.01s.02.01.02.01h0s.01.02.01.02h.01s.02.01.02.01l.61.26h.01s.02.01.02.01h.01s.02.01.02.01h.01s0,.02,0,.02h.02s.01.01.01.01h.01s.01.01.01.01h.01s.01.01.01.01h.02s0,.01,0,.01h.02s0,.01,0,.01h.02s.02.02.02.02h.02s.02.01.02.01h.02s.02.02.02.02h.02s.02.02.02.02l.04.02h.02s.01.01.01.01h.02s.02.01.02.01l.06.03h.02s.01.01.01.01l.45.19h.01s.02.02.02.02h.02s.01.01.01.01h.02s.02.02.02.02h.01s.02.02.02.02h.02s.02.01.02.01h.02s.02.02.02.02h.02s.16.07.16.07h.01s.02.01.02.01v.02s.03,0,.03,0h.01s.02.01.02.01c.21.09.43.18.64.26h.01s.02.01.02.01l.04.02h.02s.01.02.01.02h.04s.01.02.01.02h.01s.02,0,.02,0h.01s.01.02.01.02h.02s.01.01.01.01h.02s.02.01.02.01h.01s.02.01.02.01h.02s.01.02.01.02h.02s.02,0,.02,0h.01s.02.02.02.02h.02s.01.01.01.01h.02s.01.01.01.01h.01s.02.01.02.01h.01s.02.02.02.02h.01s.01.02.01.02h.02s.02.01.02.01h.02s.01.02.01.02h.02s.01.01.01.01h.02s.02.02.02.02h.01s.02.01.02.01h.02s.02.02.02.02h.02s.01,0,.01,0l.03.02h.01s.02.01.02.01h.01s.06.03.06.03h.02s.01.02.01.02l.05.02h.02s.02.02.02.02h.02s.01.02.01.02h.01s.02.01.02.01h.01s.02.02.02.02h.01s.02,0,.02,0h.01s.02.02.02.02l.15.06h.02s.02.01.02.01h.01s.02.02.02.02h.02s.02.01.02.01l.77.3h.01s.06.03.06.03h.02s.02.01.02.01h.03s.02.02.02.02h.02s.02.01.02.01h.01s.01.02.01.02h.02s.02.01.02.01h.02s.02.01.02.01h.02s.02.01.02.01h.01s.01.01.01.01h.01s.02.02.02.02h.02s.01,0,.01,0h.02s.02.02.02.02h.01s.02,0,.02,0h.01s.09.04.09.04h.02s.02,0,.02,0h.01s.47.19.47.19h.01s.02.02.02.02h.02s.01.01.01.01h.01s.02.01.02.01h.01s.01.01.01.01l.06.03h.02s.01.02.01.02h.02s.01.01.01.01h.02c.32.12.62.23.94.35h.02s0,.01,0,.01h.02s.02.02.02.02h.03s.02.02.02.02h.02s.01.01.01.01h.02s.01.01.01.01h.02s.02,0,.02,0h.01s.01.02.01.02h.02s.01,0,.01,0h.02s.01.01.01.01h.01s.02.01.02.01h.01s.01,0,.01,0h.01s.02.02.02.02h.03s.02.02.02.02h.02s.01.01.01.01h.01s.02,0,.02,0l.06.03h.02s.01.01.01.01l.08.03h.01s.08.04.08.04h.02l.06.03h.01s.02.01.02.01h.03s.02.02.02.02h.02s.01.01.01.01h.01s.02.01.02.01h.01s.01.01.01.01h.02s.08.04.08.04h.02s.01,0,.01,0h.02s.01.01.01.01h.02s.02.02.02.02h.02s.02.01.02.01c.27.1.56.19.83.28h.02s.01.01.01.01h.04s.02.02.02.02h.02s.02.01.02.01h.02s.02.01.02.01h.02s.01.01.01.01h.02s.02.01.02.01h.02s.01.02.01.02h.01s.02,0,.02,0h.02s.02.01.02.01h.01s.02,0,.02,0h.02s.01.01.01.01h.02s.02.01.02.01h.01s.01.01.01.01h.02s.01.01.01.01h.01s.02,0,.02,0h.02s.54.19.54.19h.01s.02.01.02.01h.02s.02.01.02.01h.02s.02.01.02.01h.02s.01.01.01.01h.01s.02.01.02.01h.01s.01.01.01.01h.02s.01,0,.01,0c.34.11.67.21,1,.31h.02s.01,0,.01,0h.02s.02.01.02.01h.02s.02.01.02.01h.02s.01,0,.01,0h.02s.02.01.02.01h.01s.02,0,.02,0h.01s.02,0,.02,0h.02s.02.02.02.02h.01s.01,0,.01,0h.02s.01.01.01.01h.01s.02.01.02.01h.01s.01,0,.01,0h.02s.02.01.02.01h.01s.02,0,.02,0h.01s.01.01.01.01h.01s.02,0,.02,0h.01s.01.01.01.01h.02s.07.03.07.03h.01s.04.02.04.02h.02l.21.07h.02s.01.01.01.01h.02s.02,0,.02,0h.01s.01.01.01.01h.02s.01.01.01.01h.01s.02.01.02.01l.09.03h.02s.01,0,.01,0h.02c.24.07.47.14.72.2h.01s.02.01.02.01h.05s.01.02.01.02h.01s.02.01.02.01h.02s.01.01.01.01h.02s.02,0,.02,0h.01s.02,0,.02,0h.02s.01.01.01.01h.01s.02.01.02.01h.01s.01,0,.01,0h.02s.02.01.02.01h.02s.02.01.02.01h.02s.01,0,.01,0h.02s.02.01.02.01h.02s.02,0,.02,0h.02s.01.01.01.01h.02s.02,0,.02,0h.02s.02.01.02.01h.03s.02.01.02.01l.61.17h.02s.01.01.01.01h.02s.02.01.02.01h.02s.01,0,.01,0l.08.02h.02s.01,0,.01,0h.01s.02.02.02.02h0l.53.14h.06s.02.02.02.02h.02s.02,0,.02,0h.03s.01.01.01.01h.02s.01,0,.01,0h.01s.01.01.01.01h.03s.01,0,.01,0h.03s.01.02.01.02h.03s.01,0,.01,0h.01s.02,0,.02,0h.02s.02.01.02.01h.02s.02.01.02.01h.04s.01.01.01.01h.04s.02.02.02.02h.02s.02.01.02.01h.02c.28.08.56.15.84.22h.02s.02.01.02.01h.01s.02,0,.02,0h.03s.02,0,.02,0h.01s0,.01,0,.01h.01s.02,0,.02,0h.02s.02,0,.02,0h.02c.32.08.63.15.95.23h.02s.02,0,.02,0h.02s.02,0,.02,0h.02s.02.01.02.01h.01s.02,0,.02,0h.02s.02.01.02.01h.01s.02,0,.02,0h.02s.02.01.02.01h.03s.01.01.01.01h.04s.02.01.02.01h.03s0,.01,0,.01h.01s.02,0,.02,0h.02s.01,0,.01,0h.02s.01,0,.01,0h.01s.01,0,.01,0h.02s.01.01.01.01h.02s.01,0,.01,0h.01s.03.02.03.02h.03s.47.12.47.12h.01s.01,0,.01,0h.03s.02,0,.02,0h.01s.01,0,.01,0h.02s.02.01.02.01c.38.08.77.16,1.15.25h.02s.02,0,.02,0h.02s.03,0,.03,0h.02s.02,0,.02,0h.01s.02,0,.02,0h.01s.01,0,.01,0h.04s.02,0,.02,0h.02s.01,0,.01,0h.02s.01,0,.01,0h.01s.02,0,.02,0h.03s.03.02.03.02h.05s.01.01.01.01l.49.11h.04s.02,0,.02,0h.01s.02,0,.02,0h.01s.04.01.04.01h.03s.02,0,.02,0h.03c.45.1.9.17,1.36.26h.02s.02,0,.02,0h.03s.02,0,.02,0h.03s.02,0,.02,0h.02s.01,0,.01,0h.03s.02,0,.02,0h.02s0,.01,0,.01h.03s0,0,0,0h.03s.01,0,.01,0h.03s.01,0,.01,0h0s.01,0,.01,0h.04s0,0,0,0h.02l.33.06h.02s0,0,0,0h.03s0,0,0,0h.04s.02,0,.02,0c.37.06.73.12,1.09.18h.02s.05,0,.05,0h.04s.02,0,.02,0h.02s.02,0,.02,0h.02s.01,0,.01,0h.02s0,0,0,0h.04s.02,0,.02,0h.02s.01,0,.01,0h.04s.01,0,.01,0h.03s.01,0,.01,0h.03s.02,0,.02,0h.03s.02,0,.02,0h.01s.02,0,.02,0h.02l.51.08h.04s.02,0,.02,0h.01s.02,0,.02,0h.01s0,0,0,0h.03s.01,0,.01,0h.01c.76.11,1.51.21,2.27.31h.04s.03,0,.03,0h.02c.51.06,1.01.11,1.51.17h.02s.03,0,.03,0h.02s.02,0,.02,0h.03s.03,0,.03,0h0s.02,0,.02,0h.04s.01,0,.01,0h.03s.01,0,.01,0h0s.02,0,.02,0h0s.03,0,.03,0h0s.01,0,.01,0h.02l.27.03h.08s0,0,0,0h.04c.77.08,1.54.15,2.32.2h.02c.77.06,1.56.11,2.33.14h.01c.79.03,1.57.06,2.36.08,72.15,1.51,121.79-34.27,151.85-90.26-2.07,24.07-2.7,47.06-2.55,69.52.04,4.96.24,27.92,3.54,51.42,1.46,10.45,6.13,19.36,12.68,27.04h0Z"/>
      <path class="cls-2" d="m1214.13,1014.07c-9.72-46.07-27.09-85.03-71.69-114.88-78.23-52.34-231-90.49-288.16-124.33-61.56,187.89-321.04,147.92-352.79-3.02-67.27,24.63-247.16,66.89-315.49,128.95-17.66,16.04-33.83,63.74-38.22,82.73l-11.89,76.2c120.45,156.96,309.92,258.18,523.05,258.18,233.17,0,438.05-121.1,555.18-303.84h0Z"/>
    </g>
  </g>
</svg>